<svg version="1.2" baseProfile="tiny-ps" xmlns="http://www.w3.org/2000/svg" viewBox="0 0 150 93" width="150" height="93">
	<title>undraw_add_information_j2wg-svg</title>
	<style>
		tspan { white-space:pre }
		.shp0 { fill: #f2f2f2 } 
		.shp1 { fill: #cacaca } 
		.shp2 { fill: #3f3d56 } 
		.shp3 { fill: #f5793b } 
		.shp4 { opacity: 0.502;fill: #f5793b } 
		.shp5 { fill: #ffffff } 
		.shp6 { fill: #ffb6b6 } 
		.shp7 { fill: #2f2e41 } 
		.shp8 { fill: #ff6584 } 
		.shp9 { fill: #cccccc } 
	</style>
	<path id="Layer" class="shp0" d="M36.3 83.82L36.47 80.08C36.9 79.85 37.35 79.64 37.81 79.47C38.26 79.29 38.73 79.14 39.21 79.02C39.68 78.9 40.16 78.81 40.65 78.75C41.14 78.69 41.63 78.65 42.12 78.65C39.4 80.87 39.74 85.14 37.91 88.12C37.62 88.58 37.28 89.01 36.89 89.39C36.51 89.78 36.08 90.12 35.62 90.41C35.16 90.7 34.67 90.93 34.15 91.11C33.64 91.3 33.11 91.42 32.57 91.48L30.3 92.87C30.14 92 30.08 91.12 30.12 90.25C30.15 89.37 30.28 88.5 30.5 87.65C30.72 86.8 31.03 85.97 31.43 85.19C31.83 84.4 32.31 83.67 32.87 82.99C33.03 82.8 33.19 82.61 33.36 82.43C33.53 82.26 33.71 82.08 33.89 81.91C34.07 81.75 34.26 81.58 34.45 81.43C34.64 81.27 34.83 81.12 35.03 80.98C35.58 82.41 36.3 83.82 36.3 83.82Z" />
	<path id="Layer" class="shp1" d="M133.12 6.1L27.49 6.1C27.45 6.1 27.41 6.08 27.38 6.05C27.35 6.02 27.33 5.98 27.33 5.93C27.33 5.89 27.35 5.85 27.38 5.81C27.41 5.78 27.45 5.76 27.49 5.76L133.12 5.76C133.16 5.76 133.2 5.78 133.23 5.81C133.26 5.85 133.28 5.89 133.28 5.93C133.28 5.98 133.26 6.02 133.23 6.05C133.2 6.08 133.16 6.1 133.12 6.1Z" />
	<path id="Layer" class="shp2" d="M31.23 3.73C30.22 3.73 29.4 2.9 29.4 1.86C29.4 0.83 30.22 0 31.23 0C32.24 0 33.05 0.83 33.05 1.86C33.05 2.9 32.24 3.73 31.23 3.73Z" />
	<path id="Layer" class="shp2" d="M37.53 3.73C36.52 3.73 35.71 2.9 35.71 1.86C35.71 0.83 36.52 0 37.53 0C38.54 0 39.36 0.83 39.36 1.86C39.36 2.9 38.54 3.73 37.53 3.73Z" />
	<path id="Layer" class="shp2" d="M43.84 3.73C42.83 3.73 42.01 2.9 42.01 1.86C42.01 0.83 42.83 0 43.84 0C44.85 0 45.66 0.83 45.66 1.86C45.66 2.9 44.85 3.73 43.84 3.73Z" />
	<path id="Layer" class="shp2" d="M129.57 0.56C129.64 0.63 129.67 0.71 129.67 0.8C129.67 0.89 129.64 0.98 129.57 1.04C129.51 1.1 129.43 1.14 129.34 1.14L124.86 1.14C124.77 1.14 124.69 1.1 124.62 1.04C124.56 0.98 124.53 0.89 124.53 0.8C124.53 0.71 124.56 0.63 124.62 0.56C124.69 0.5 124.77 0.46 124.86 0.46L129.34 0.46C129.43 0.46 129.51 0.5 129.57 0.56Z" />
	<path id="Layer" class="shp2" d="M129.57 1.84C129.64 1.9 129.67 1.98 129.67 2.07C129.67 2.16 129.64 2.25 129.57 2.31C129.51 2.37 129.43 2.41 129.34 2.41L124.86 2.41C124.77 2.41 124.69 2.37 124.62 2.31C124.56 2.25 124.53 2.16 124.53 2.07C124.53 1.98 124.56 1.9 124.62 1.84C124.69 1.77 124.77 1.74 124.86 1.73L129.34 1.73C129.43 1.74 129.51 1.77 129.57 1.84Z" />
	<path id="Layer" class="shp2" d="M129.57 3.11C129.64 3.17 129.67 3.26 129.67 3.34C129.67 3.43 129.64 3.52 129.57 3.58C129.51 3.64 129.43 3.68 129.34 3.68L124.86 3.68C124.77 3.68 124.69 3.64 124.62 3.58C124.56 3.52 124.53 3.43 124.53 3.34C124.53 3.26 124.56 3.17 124.62 3.11C124.69 3.04 124.77 3.01 124.86 3.01L129.34 3.01C129.43 3.01 129.51 3.04 129.57 3.11Z" />
	<path id="Layer" class="shp2" d="M110.21 19.49C110.37 19.56 110.52 19.66 110.65 19.79C110.77 19.91 110.87 20.06 110.94 20.22C111.01 20.39 111.04 20.56 111.04 20.74L111.04 54.94C111.04 55.12 111.01 55.3 110.94 55.46C110.87 55.62 110.77 55.77 110.65 55.9C110.52 56.02 110.37 56.12 110.21 56.19C110.05 56.26 109.87 56.29 109.7 56.29L37.2 56.29C37.02 56.29 36.85 56.26 36.68 56.19C36.52 56.12 36.37 56.02 36.25 55.9C36.12 55.77 36.02 55.62 35.95 55.46C35.89 55.3 35.85 55.12 35.85 54.94L35.85 20.74C35.85 20.56 35.89 20.39 35.95 20.22C36.02 20.06 36.12 19.91 36.25 19.79C36.37 19.66 36.52 19.56 36.68 19.49C36.85 19.43 37.02 19.39 37.2 19.39L109.7 19.39C109.87 19.39 110.05 19.43 110.21 19.49Z" />
	<path id="Layer" class="shp3" d="M111.04 35.87L111.04 48.23L90.55 48.23C90.37 48.23 90.19 48.19 90.03 48.12C89.87 48.06 89.72 47.96 89.59 47.83C89.47 47.71 89.37 47.56 89.3 47.39C89.24 47.23 89.2 47.06 89.2 46.88L89.2 37.22C89.2 37.04 89.24 36.87 89.3 36.7C89.37 36.54 89.47 36.39 89.6 36.27C89.72 36.14 89.87 36.04 90.03 35.97C90.2 35.91 90.37 35.87 90.55 35.87L111.04 35.87Z" />
	<path id="Layer" class="shp4" d="M145.5 48.23L90.55 48.23C90.37 48.23 90.2 48.19 90.03 48.12C89.87 48.06 89.72 47.96 89.6 47.83C89.47 47.71 89.37 47.56 89.3 47.39C89.24 47.23 89.2 47.06 89.2 46.88L89.2 37.22C89.2 37.04 89.24 36.87 89.3 36.7C89.37 36.54 89.47 36.39 89.6 36.27C89.72 36.14 89.87 36.04 90.03 35.97C90.2 35.91 90.37 35.87 90.55 35.87L145.5 35.87C145.68 35.87 145.86 35.91 146.02 35.97C146.18 36.04 146.33 36.14 146.46 36.27C146.58 36.39 146.68 36.54 146.75 36.7C146.82 36.87 146.85 37.04 146.85 37.22L146.85 46.88C146.85 47.06 146.82 47.23 146.75 47.39C146.68 47.56 146.58 47.71 146.46 47.83C146.33 47.96 146.18 48.06 146.02 48.12C145.86 48.19 145.68 48.23 145.5 48.23Z" />
	<path id="Layer" class="shp5" d="M97.98 44.85C96.77 44.85 95.79 43.87 95.79 42.67C95.79 41.46 96.77 40.48 97.98 40.48C99.19 40.48 100.17 41.46 100.17 42.67C100.17 43.87 99.19 44.85 97.98 44.85Z" />
	<path id="Layer" class="shp5" d="M143.8 42.03L104.3 42.03C104.12 42.03 103.96 41.96 103.83 41.84C103.71 41.72 103.64 41.55 103.64 41.38C103.64 41.21 103.71 41.04 103.83 40.92C103.96 40.8 104.12 40.73 104.3 40.73L143.8 40.73C143.97 40.73 144.14 40.8 144.26 40.92C144.38 41.04 144.45 41.21 144.45 41.38C144.45 41.55 144.38 41.72 144.26 41.84C144.14 41.96 143.97 42.03 143.8 42.03Z" />
	<path id="Layer" class="shp5" d="M128.8 44.6L104.3 44.6C104.12 44.6 103.96 44.53 103.83 44.41C103.71 44.29 103.64 44.12 103.64 43.95C103.64 43.78 103.71 43.61 103.83 43.49C103.96 43.37 104.12 43.3 104.3 43.3L128.8 43.3C128.97 43.3 129.14 43.37 129.26 43.49C129.38 43.61 129.45 43.78 129.45 43.95C129.45 44.12 129.38 44.29 129.26 44.41C129.14 44.53 128.97 44.6 128.8 44.6Z" />
	<path id="Layer" class="shp6" d="M25.29 91.09L25.29 83.79L28.08 83.79L27.18 91.09L25.29 91.09L25.29 91.09Z" />
	<path id="Layer" class="shp7" d="M24.81 90.47L25.34 90.47L27.42 89.62L28.53 90.47L28.53 90.47C28.85 90.47 29.16 90.53 29.44 90.65C29.73 90.77 29.99 90.94 30.21 91.16C30.43 91.38 30.61 91.65 30.73 91.93C30.85 92.22 30.91 92.53 30.91 92.84L30.91 92.92L24.81 92.92L24.81 90.47Z" />
	<path id="Layer" class="shp6" d="M8.19 88.63L11.45 82.1L13.95 83.34L9.89 89.47L8.19 88.63L8.19 88.63Z" />
	<path id="Layer" class="shp7" d="M8.04 87.86L8.51 88.1L10.75 88.27L11.37 89.52L11.37 89.52C11.65 89.66 11.9 89.85 12.1 90.09C12.31 90.32 12.47 90.6 12.56 90.89C12.66 91.19 12.7 91.5 12.68 91.81C12.66 92.12 12.58 92.42 12.44 92.7L12.4 92.77L6.94 90.05L8.04 87.86Z" />
	<path id="Layer" class="shp7" d="M26.97 61.61L27.37 63.12L27.37 63.55C27.35 63.58 27.34 63.62 27.32 63.66C27.31 63.7 27.3 63.74 27.3 63.78C27.29 63.82 27.28 63.86 27.28 63.9C27.28 63.94 27.28 63.98 27.28 64.02C27.28 64.33 28.79 84.9 28.79 84.9C28.79 84.9 28.79 85.46 28.89 85.56C29 85.67 28.89 85.77 28.64 86.28C28.38 86.8 28.37 86.71 28.58 87.02C28.79 87.34 28.37 88.22 28.37 88.22L24.35 88.17L24.46 87.65C24.56 87.13 24.46 87.65 24.14 87.34C23.83 87.02 24.25 87.13 24.35 86.71C24.46 86.29 24.46 86.4 24.25 86.19C24.04 85.98 24.04 76.99 24.04 76.99L21 66.74L19.75 77.19C19.75 77.19 13.79 83.5 13.79 83.61C13.79 83.71 13.58 84.34 13.58 84.45C13.58 84.55 13.39 85.6 13.39 85.6L9.98 85.6C9.94 85.54 9.9 85.49 9.85 85.43C9.81 85.38 9.77 85.33 9.73 85.28C9.68 85.22 9.64 85.17 9.59 85.12C9.55 85.07 9.5 85.02 9.46 84.97C9.25 84.76 9.46 84.97 9.67 84.45C9.87 83.92 9.67 84.13 9.46 83.92C9.25 83.71 14.18 74.99 14.18 74.99C14.18 74.99 14.73 67.99 14.93 67.26C15.14 66.53 14.93 66.53 14.52 66.11C14.1 65.69 14.31 64.12 14.31 64.12L14.1 58.27L26.13 57.95L26.97 61.61Z" />
	<path id="Layer" class="shp3" d="M145.27 39.8C143.4 39.8 141.72 38.67 141 36.95C140.29 35.22 140.68 33.24 142.01 31.92C143.33 30.6 145.31 30.2 147.04 30.92C148.76 31.63 149.89 33.31 149.89 35.18C149.89 35.79 149.77 36.39 149.53 36.95C149.3 37.51 148.96 38.02 148.53 38.44C148.11 38.87 147.6 39.21 147.04 39.44C146.48 39.68 145.88 39.8 145.27 39.8L145.27 39.8Z" />
	<path id="Layer" class="shp5" d="M147.09 34.73C147.21 34.73 147.33 34.77 147.41 34.86C147.5 34.94 147.55 35.06 147.55 35.18C147.55 35.3 147.5 35.42 147.41 35.5C147.33 35.59 147.21 35.64 147.09 35.64L145.72 35.64L145.72 37C145.72 37.12 145.68 37.24 145.59 37.32C145.51 37.41 145.39 37.46 145.27 37.46C145.15 37.46 145.03 37.41 144.95 37.32C144.86 37.24 144.81 37.12 144.81 37L144.81 35.64L143.45 35.64C143.33 35.64 143.21 35.59 143.13 35.5C143.04 35.42 142.99 35.3 142.99 35.18C142.99 35.06 143.04 34.94 143.13 34.86C143.21 34.77 143.33 34.73 143.45 34.73L144.81 34.73L144.81 33.36C144.81 33.24 144.86 33.12 144.95 33.04C145.03 32.95 145.15 32.91 145.27 32.91C145.39 32.91 145.51 32.95 145.59 33.04C145.68 33.12 145.72 33.24 145.72 33.36L145.72 34.73L147.09 34.73L147.09 34.73Z" />
	<path id="Layer" class="shp3" d="M74.81 48.29C74.99 48.29 75.17 48.32 75.33 48.39C75.49 48.46 75.64 48.56 75.77 48.68C75.89 48.81 75.99 48.96 76.06 49.12C76.12 49.28 76.16 49.46 76.16 49.64L76.16 56.29L55.92 56.29L55.92 49.64C55.93 49.46 55.96 49.28 56.03 49.12C56.1 48.96 56.19 48.81 56.32 48.68C56.45 48.56 56.59 48.46 56.76 48.39C56.92 48.32 57.1 48.29 57.27 48.29L74.81 48.29L74.81 48.29Z" />
	<path id="Layer" class="shp4" d="M74.81 66.99L57.27 66.99C57.1 66.99 56.92 66.95 56.76 66.89C56.59 66.82 56.44 66.72 56.32 66.59C56.19 66.47 56.1 66.32 56.03 66.16C55.96 65.99 55.93 65.82 55.92 65.64L55.92 49.64C55.93 49.46 55.96 49.28 56.03 49.12C56.1 48.96 56.19 48.81 56.32 48.68C56.44 48.56 56.59 48.46 56.76 48.39C56.92 48.32 57.1 48.29 57.27 48.29L74.81 48.29C74.99 48.29 75.16 48.32 75.33 48.39C75.49 48.46 75.64 48.56 75.77 48.68C75.89 48.81 75.99 48.96 76.06 49.12C76.13 49.28 76.16 49.46 76.16 49.64L76.16 65.64C76.16 65.82 76.13 65.99 76.06 66.16C75.99 66.32 75.89 66.47 75.77 66.59C75.64 66.72 75.49 66.82 75.33 66.89C75.16 66.95 74.99 66.99 74.81 66.99Z" />
	<path id="Layer" class="shp5" d="M62.44 55.88C61.23 55.88 60.25 54.9 60.25 53.69C60.25 52.48 61.23 51.5 62.44 51.5C63.65 51.5 64.63 52.48 64.63 53.69C64.63 54.9 63.65 55.88 62.44 55.88Z" />
	<path id="Layer" class="shp5" d="M71.18 59.2L60.9 59.2C60.73 59.2 60.57 59.13 60.44 59.01C60.32 58.88 60.25 58.72 60.25 58.55C60.25 58.37 60.32 58.21 60.44 58.09C60.57 57.96 60.73 57.9 60.9 57.9L71.18 57.9C71.35 57.9 71.52 57.96 71.64 58.09C71.76 58.21 71.83 58.37 71.83 58.55C71.83 58.72 71.76 58.88 71.64 59.01C71.52 59.13 71.35 59.2 71.18 59.2L71.18 59.2Z" />
	<path id="Layer" class="shp5" d="M65.86 61.77L60.9 61.77C60.73 61.77 60.57 61.7 60.44 61.58C60.32 61.46 60.25 61.29 60.25 61.12C60.25 60.95 60.32 60.78 60.44 60.66C60.57 60.54 60.73 60.47 60.9 60.47L65.86 60.47C66.04 60.47 66.2 60.54 66.32 60.66C66.45 60.78 66.51 60.95 66.51 61.12C66.51 61.29 66.45 61.46 66.32 61.58C66.2 61.7 66.04 61.77 65.86 61.77Z" />
	<path id="Layer" class="shp3" d="M56.91 71.69C55.04 71.69 53.36 70.56 52.64 68.84C51.93 67.11 52.32 65.13 53.64 63.81C54.96 62.49 56.95 62.09 58.67 62.81C60.4 63.52 61.52 65.21 61.52 67.07C61.52 67.68 61.4 68.28 61.17 68.84C60.94 69.4 60.6 69.91 60.17 70.33C59.74 70.76 59.23 71.1 58.67 71.34C58.11 71.57 57.51 71.69 56.91 71.69L56.91 71.69Z" />
	<path id="Layer" class="shp5" d="M58.73 66.62C58.85 66.62 58.96 66.66 59.05 66.75C59.14 66.84 59.18 66.95 59.18 67.07C59.18 67.19 59.14 67.31 59.05 67.39C58.96 67.48 58.85 67.53 58.73 67.53L57.36 67.53L57.36 68.89C57.36 69.01 57.31 69.13 57.23 69.21C57.14 69.3 57.03 69.35 56.91 69.35C56.79 69.35 56.67 69.3 56.58 69.21C56.5 69.13 56.45 69.01 56.45 68.89L56.45 67.53L55.08 67.53C54.96 67.53 54.85 67.48 54.76 67.39C54.68 67.31 54.63 67.19 54.63 67.07C54.63 66.95 54.68 66.84 54.76 66.75C54.85 66.66 54.96 66.62 55.08 66.62L56.45 66.62L56.45 65.25C56.45 65.13 56.5 65.01 56.58 64.93C56.67 64.84 56.79 64.8 56.91 64.8C57.03 64.8 57.14 64.84 57.23 64.93C57.31 65.01 57.36 65.13 57.36 65.25L57.36 66.62L58.73 66.62L58.73 66.62Z" />
	<path id="Layer" class="shp3" d="M54.77 38.11L37.23 38.11C37.05 38.11 36.88 38.08 36.71 38.01C36.55 37.94 36.4 37.84 36.28 37.72C36.15 37.59 36.05 37.44 35.98 37.28C35.92 37.12 35.88 36.94 35.88 36.77L35.88 20.76C35.88 20.58 35.92 20.41 35.98 20.24C36.05 20.08 36.15 19.93 36.28 19.81C36.4 19.68 36.55 19.58 36.71 19.52C36.88 19.45 37.05 19.41 37.23 19.41L54.77 19.41C54.95 19.41 55.12 19.45 55.28 19.52C55.45 19.58 55.6 19.68 55.72 19.81C55.85 19.93 55.95 20.08 56.01 20.24C56.08 20.41 56.12 20.58 56.12 20.76L56.12 36.77C56.12 36.94 56.08 37.12 56.01 37.28C55.95 37.44 55.85 37.59 55.72 37.72C55.6 37.84 55.45 37.94 55.28 38.01C55.12 38.08 54.95 38.11 54.77 38.11L54.77 38.11Z" />
	<path id="Layer" class="shp3" d="M42.4 28.34C41.19 28.34 40.21 27.36 40.21 26.15C40.21 24.94 41.19 23.96 42.4 23.96C43.61 23.96 44.58 24.94 44.58 26.15C44.58 27.36 43.61 28.34 42.4 28.34Z" />
	<path id="Layer" class="shp3" d="M51.14 30.99L40.86 30.99C40.69 30.99 40.52 30.92 40.4 30.8C40.28 30.68 40.21 30.51 40.21 30.34C40.21 30.17 40.28 30 40.4 29.88C40.52 29.76 40.69 29.69 40.86 29.69L51.14 29.69C51.31 29.69 51.48 29.76 51.6 29.88C51.72 30 51.79 30.17 51.79 30.34C51.79 30.51 51.72 30.68 51.6 30.8C51.48 30.92 51.31 30.99 51.14 30.99L51.14 30.99Z" />
	<path id="Layer" class="shp3" d="M45.82 33.56L40.86 33.56C40.69 33.56 40.52 33.49 40.4 33.37C40.28 33.25 40.21 33.08 40.21 32.91C40.21 32.74 40.28 32.57 40.4 32.45C40.52 32.33 40.69 32.26 40.86 32.26L45.82 32.26C45.99 32.26 46.16 32.33 46.28 32.45C46.4 32.57 46.47 32.74 46.47 32.91C46.47 33.08 46.4 33.25 46.28 33.37C46.16 33.49 45.99 33.56 45.82 33.56L45.82 33.56Z" />
	<path id="Layer" class="shp4" d="M54.77 38.11L37.23 38.11C37.05 38.11 36.88 38.08 36.71 38.01C36.55 37.94 36.4 37.84 36.28 37.72C36.15 37.59 36.05 37.44 35.98 37.28C35.92 37.12 35.88 36.94 35.88 36.77L35.88 20.76C35.88 20.58 35.92 20.41 35.98 20.24C36.05 20.08 36.15 19.93 36.28 19.81C36.4 19.68 36.55 19.58 36.71 19.52C36.88 19.45 37.05 19.41 37.23 19.41L54.77 19.41C54.95 19.41 55.12 19.45 55.28 19.52C55.45 19.58 55.6 19.68 55.72 19.81C55.85 19.93 55.95 20.08 56.01 20.24C56.08 20.41 56.12 20.58 56.12 20.76L56.12 36.77C56.12 36.94 56.08 37.12 56.01 37.28C55.95 37.44 55.85 37.59 55.72 37.72C55.6 37.84 55.45 37.94 55.28 38.01C55.12 38.08 54.95 38.11 54.77 38.11L54.77 38.11Z" />
	<path id="Layer" class="shp5" d="M42.4 28.34C41.19 28.34 40.21 27.36 40.21 26.15C40.21 24.94 41.19 23.96 42.4 23.96C43.61 23.96 44.58 24.94 44.58 26.15C44.58 27.36 43.61 28.34 42.4 28.34Z" />
	<path id="Layer" class="shp5" d="M51.14 30.99L40.86 30.99C40.69 30.99 40.52 30.92 40.4 30.8C40.28 30.68 40.21 30.51 40.21 30.34C40.21 30.17 40.28 30 40.4 29.88C40.52 29.76 40.69 29.69 40.86 29.69L51.14 29.69C51.31 29.69 51.48 29.76 51.6 29.88C51.72 30 51.79 30.17 51.79 30.34C51.79 30.51 51.72 30.68 51.6 30.8C51.48 30.92 51.31 30.99 51.14 30.99L51.14 30.99Z" />
	<path id="Layer" class="shp5" d="M45.82 33.56L40.86 33.56C40.69 33.56 40.52 33.49 40.4 33.37C40.28 33.25 40.21 33.08 40.21 32.91C40.21 32.74 40.28 32.57 40.4 32.45C40.52 32.33 40.69 32.26 40.86 32.26L45.82 32.26C45.99 32.26 46.16 32.33 46.28 32.45C46.4 32.57 46.47 32.74 46.47 32.91C46.47 33.08 46.4 33.25 46.28 33.37C46.16 33.49 45.99 33.56 45.82 33.56L45.82 33.56Z" />
	<path id="Layer" class="shp8" d="M37.59 22.87C35.65 22.87 34.08 21.3 34.08 19.36C34.08 17.42 35.65 15.85 37.59 15.85C39.53 15.85 41.1 17.42 41.1 19.36C41.1 21.3 39.53 22.87 37.59 22.87Z" />
	<path id="Layer" class="shp9" d="M47.22 92.8C47.22 92.82 47.21 92.85 47.2 92.87C47.19 92.9 47.18 92.92 47.16 92.94C47.14 92.96 47.12 92.97 47.09 92.98C47.07 92.99 47.04 93 47.02 93L0.2 93C0.15 93 0.1 92.97 0.06 92.94C0.02 92.9 0 92.85 0 92.8C0 92.74 0.02 92.69 0.06 92.66C0.1 92.62 0.15 92.6 0.2 92.6L47.02 92.6C47.04 92.6 47.07 92.6 47.09 92.61C47.12 92.62 47.14 92.64 47.16 92.66C47.18 92.67 47.19 92.7 47.2 92.72C47.21 92.75 47.22 92.77 47.22 92.8L47.22 92.8Z" />
	<path id="Layer" class="shp6" d="M36.84 28.65C36.91 28.85 36.94 29.06 36.93 29.27C36.93 29.48 36.87 29.69 36.79 29.88C36.7 30.07 36.57 30.25 36.41 30.39C36.26 30.54 36.08 30.65 35.88 30.72C35.86 30.73 35.83 30.74 35.81 30.75C35.79 30.75 35.77 30.76 35.74 30.77C35.72 30.77 35.7 30.78 35.68 30.78C35.65 30.79 35.63 30.79 35.61 30.8L34.68 36.47L32.51 34.46L33.72 29.39C33.7 29.17 33.72 28.96 33.78 28.76C33.84 28.55 33.94 28.36 34.07 28.19C34.2 28.03 34.37 27.89 34.55 27.79C34.74 27.68 34.94 27.62 35.15 27.59C35.33 27.57 35.51 27.58 35.69 27.62C35.86 27.66 36.03 27.73 36.18 27.82C36.34 27.92 36.47 28.04 36.58 28.18C36.69 28.32 36.78 28.48 36.84 28.65L36.84 28.65Z" />
	<path id="Layer" class="shp2" d="M20.8 41.5C20.8 41.5 22.49 39.27 28.61 39.33L32.08 38.07L32.88 30.79L35.66 31.45L35.26 40.45L29.31 43.89L21.5 45.47L20.8 41.5Z" />
	<path id="a9729a65-ee7a-4a83-8b52-5849077a5ed0" class="shp6" d="M19.91 36.85C17.9 36.85 16.27 35.23 16.27 33.22C16.27 31.22 17.9 29.59 19.91 29.59C21.92 29.59 23.54 31.22 23.54 33.22C23.54 35.23 21.92 36.85 19.91 36.85Z" />
	<path id="Layer" class="shp2" d="M13.76 60.76C13.76 60.76 13.76 60.76 13.75 60.76C13.75 60.75 13.75 60.75 13.75 60.75C13.75 60.75 13.75 60.75 13.74 60.75C13.74 60.75 13.74 60.75 13.74 60.75C13.67 60.73 13.62 60.72 13.86 58.63L14.12 56.97L13.87 55.51L13.44 55.08L14.13 54.4L14.71 52.75L13.71 51.27L12.56 45.21C12.46 44.69 12.45 44.16 12.52 43.63C12.6 43.11 12.75 42.6 12.99 42.13C13.23 41.66 13.55 41.23 13.92 40.86C14.3 40.49 14.74 40.18 15.21 39.95L16.54 39.56L17.03 38.68C17.1 38.55 17.18 38.44 17.28 38.34C17.37 38.23 17.49 38.15 17.61 38.07C17.73 38 17.86 37.94 17.99 37.91C18.13 37.87 18.27 37.85 18.41 37.85L20.85 37.83C20.97 37.83 21.09 37.84 21.21 37.87C21.33 37.9 21.44 37.94 21.55 37.99C21.66 38.04 21.77 38.11 21.86 38.19C21.96 38.26 22.04 38.35 22.12 38.45L22.97 39.55L26.49 40.75L25.91 53.33L25.91 53.33C26 53.4 26.07 53.5 26.13 53.61C26.18 53.72 26.21 53.83 26.22 53.95C26.22 54.08 26.2 54.2 26.16 54.31C26.12 54.42 26.05 54.52 25.97 54.61C25.93 54.65 25.9 54.68 25.88 54.7C25.82 54.78 25.93 55.41 26.07 55.95L26.25 56.76L26.25 56.76C26.19 56.8 26.14 56.86 26.11 56.92C26.07 56.98 26.05 57.04 26.04 57.11C26.03 57.18 26.04 57.25 26.06 57.32C26.08 57.38 26.11 57.44 26.16 57.5L26.38 57.76L26.38 57.76C26.4 57.93 26.39 58.1 26.35 58.26C26.31 58.42 26.23 58.57 26.13 58.7C26.03 58.83 25.91 58.94 25.76 59.03C25.62 59.11 25.46 59.17 25.29 59.19C22.08 59.63 13.78 60.76 13.76 60.76Z" />
	<path id="Layer" class="shp7" d="M18.98 36.68C18.96 36.64 18.95 36.61 18.93 36.57C18.94 36.57 18.94 36.57 18.95 36.58L18.98 36.68Z" />
	<path id="Layer" class="shp7" d="M16.17 29.76C16.22 29.72 16.26 29.68 16.31 29.65C16.36 29.62 16.41 29.59 16.47 29.56C16.52 29.54 16.58 29.52 16.63 29.51C16.69 29.5 16.75 29.49 16.81 29.48C17.04 29.49 17.28 29.7 17.23 29.93C17.45 29.55 17.72 29.22 18.05 28.93C18.39 28.65 18.76 28.43 19.17 28.27C19.58 28.12 20.01 28.04 20.44 28.04C20.88 28.03 21.31 28.1 21.72 28.25C22.31 28.46 22.88 28.87 23.01 29.47C23.02 29.51 23.02 29.55 23.03 29.59C23.04 29.63 23.05 29.67 23.06 29.7C23.07 29.74 23.08 29.78 23.1 29.82C23.12 29.85 23.13 29.89 23.15 29.92C23.19 29.96 23.23 29.99 23.27 30.02C23.31 30.04 23.36 30.06 23.41 30.07C23.45 30.09 23.5 30.09 23.55 30.09C23.6 30.09 23.65 30.08 23.7 30.06L23.71 30.06C23.74 30.05 23.77 30.05 23.81 30.06C23.84 30.07 23.87 30.08 23.89 30.11C23.91 30.14 23.93 30.17 23.93 30.2C23.94 30.24 23.93 30.27 23.91 30.3L23.75 30.61C23.8 30.62 23.85 30.63 23.91 30.63C23.96 30.64 24.01 30.64 24.06 30.64C24.12 30.64 24.17 30.64 24.22 30.63C24.28 30.62 24.33 30.61 24.38 30.6C24.41 30.59 24.45 30.59 24.48 30.6C24.52 30.61 24.54 30.64 24.56 30.67C24.58 30.69 24.59 30.73 24.59 30.76C24.59 30.8 24.58 30.83 24.56 30.86C24.42 31.05 24.27 31.22 24.09 31.37C23.91 31.52 23.72 31.65 23.51 31.76C23.31 31.86 23.09 31.94 22.87 32C22.64 32.06 22.41 32.09 22.18 32.09C21.52 32.08 20.85 31.86 20.21 32.01C19.96 32.07 19.73 32.18 19.53 32.34C19.33 32.5 19.17 32.7 19.06 32.93C18.95 33.16 18.89 33.42 18.89 33.67C18.89 33.93 18.95 34.18 19.06 34.41C18.86 34.19 18.48 34.24 18.28 34.45C18.23 34.51 18.19 34.57 18.16 34.64C18.12 34.7 18.1 34.77 18.08 34.84C18.06 34.91 18.04 34.98 18.04 35.06C18.03 35.13 18.03 35.2 18.04 35.27C18.06 35.38 18.08 35.5 18.1 35.6C18.12 35.71 18.15 35.82 18.18 35.93C18.22 36.04 18.25 36.14 18.29 36.24C18.34 36.35 18.38 36.45 18.43 36.55C17.65 36.53 16.9 36.26 16.27 35.8C15.65 35.33 15.18 34.68 14.93 33.94C14.69 33.2 14.67 32.4 14.89 31.65C15.12 30.91 15.56 30.24 16.17 29.76L16.17 29.76Z" />
	<path id="Layer" class="shp6" d="M15.17 65.96C15 65.84 14.86 65.68 14.74 65.5C14.63 65.32 14.56 65.12 14.52 64.91C14.48 64.7 14.49 64.49 14.54 64.28C14.58 64.08 14.67 63.88 14.79 63.71C14.8 63.69 14.82 63.67 14.83 63.65C14.85 63.63 14.86 63.61 14.88 63.59C14.89 63.58 14.91 63.56 14.92 63.54C14.94 63.52 14.95 63.51 14.97 63.49L12.52 58.29L15.45 58.72L17.33 63.59C17.47 63.75 17.57 63.94 17.64 64.14C17.7 64.34 17.73 64.55 17.72 64.77C17.7 64.98 17.64 65.19 17.55 65.38C17.45 65.57 17.32 65.74 17.16 65.88C17.03 66 16.87 66.09 16.71 66.16C16.54 66.22 16.36 66.26 16.18 66.27C16 66.28 15.82 66.25 15.65 66.2C15.48 66.15 15.32 66.07 15.17 65.96L15.17 65.96Z" />
	<path id="Layer" class="shp2" d="M14.43 63.13L10.53 54.36L10.49 47.44L11.72 43.7C11.89 43.2 12.15 42.73 12.51 42.32C12.86 41.92 13.29 41.59 13.77 41.36C14.25 41.13 14.77 40.99 15.3 40.96C15.83 40.93 16.37 41.01 16.87 41.19L16.9 41.2L16.91 41.23C16.95 41.33 17.99 43.88 14.93 49.13L14.31 52.72L16.47 60.95L14.43 63.13Z" />
</svg>