<svg version="1.2" baseProfile="tiny-ps" xmlns="http://www.w3.org/2000/svg" viewBox="0 0 150 137" width="150" height="137">
	<title>undraw_outer_space_re_u9vd-svg</title>
	<style>
		tspan { white-space:pre }
		.shp0 { fill: #e6e6e6 } 
		.shp1 { fill: #3f3d56 } 
		.shp2 { fill: #f5793b } 
		.shp3 { fill: #ff6584 } 
		.shp4 { opacity: 0.302;fill: #f0f0f0 } 
		.shp5 { fill: #f2f2f2 } 
		.shp6 { fill: #cccccc } 
	</style>
	<path id="Layer" class="shp0" d="M96.01 109.41C96.11 109.12 96.25 108.85 96.42 108.6C96.58 108.35 96.78 108.12 97.01 107.92C97.23 107.72 97.48 107.55 97.75 107.41C98.02 107.27 98.3 107.17 98.6 107.1C99.76 106.86 101.09 107.24 102.1 108.12C103.1 108.98 103.78 110.26 104.79 111.11C105.8 111.95 107.48 112.1 107.86 110.91C108.23 109.77 107.18 108.56 106.72 107.35C106.16 105.88 106.59 104.15 107.7 103.38C108.8 102.6 110.49 102.86 111.56 103.97C112.48 104.91 112.89 106.27 113.61 107.39C114.33 108.51 115.74 109.43 116.66 108.75C117.43 108.19 117.36 106.86 116.97 105.83C116.57 104.8 115.91 103.86 115.66 102.79C115.38 101.57 115.71 100.28 116.49 99.51C116.7 99.33 116.92 99.17 117.17 99.05C117.42 98.92 117.68 98.84 117.95 98.79C118.23 98.74 118.5 98.74 118.78 98.77C119.05 98.8 119.32 98.87 119.57 98.98C120.81 99.49 121.86 100.76 123.14 100.87C124.46 100.99 125.58 99.78 126.89 100.12C127.93 100.39 128.69 101.57 128.89 102.72C129.09 103.87 128.85 104.99 128.61 106.07C129.65 106.06 130.69 106.76 131.43 107.66C132.18 108.57 132.69 109.66 133.18 110.74L134.41 113.4C135.04 114.78 135.69 116.19 135.83 117.67C136.1 120.65 134.25 123.06 132.26 124.79C130.76 126.08 128.99 127.22 126.97 127.12C124.94 127.02 122.7 125.25 122.51 123.01C123.2 124.8 122.98 126.79 122.24 128.36C121.51 129.93 120.3 131.14 119.01 132.16C118.16 132.83 117.28 133.43 116.35 133.96C115.42 134.5 114.45 134.97 113.45 135.36C112.46 135.75 111.43 136.07 110.39 136.32C109.34 136.56 108.28 136.73 107.21 136.82C105.52 136.97 103.59 136.83 102.25 135.46C100.93 134.09 100.69 131.67 101.76 130.35C100.25 130.97 98.24 130.17 97.23 128.55C96.22 126.94 96.33 124.68 97.48 123.48C96.72 123.53 95.93 123.58 95.18 123.28C94.44 122.98 93.73 122.23 93.68 121.37C93.62 120.31 94.52 119.65 95.36 119.25C96.2 118.84 97.16 118.41 97.39 117.41C96.22 117.23 95.17 115.9 95.2 114.62C95.22 113.34 96.31 112.34 97.48 112.52L96.04 109.3" />
	<path id="Layer" class="shp1" d="M119.36 100.25L116.37 101.64C116.26 101.69 116.15 101.74 116.03 101.77C115.91 101.81 115.79 101.84 115.66 101.85C115.54 101.87 115.42 101.88 115.29 101.87C115.17 101.87 115.04 101.86 114.92 101.83C114.49 101.73 114.19 101.46 114.12 101.11L113.42 97.87C113.29 97.26 113.8 96.53 114.63 96.15L116.28 95.38C117.11 95 117.99 95.08 118.37 95.57L120.41 98.19C120.63 98.48 120.65 98.88 120.45 99.27C120.39 99.38 120.32 99.48 120.24 99.58C120.16 99.68 120.08 99.77 119.98 99.85C119.89 99.93 119.79 100.01 119.69 100.08C119.58 100.14 119.48 100.2 119.36 100.25L119.36 100.25Z" />
	<path id="Layer" class="shp2" d="M26.68 40.38C27.38 38.47 28.18 36.6 29.08 34.77C29.97 32.94 30.96 31.16 32.05 29.44C33.13 27.71 34.3 26.04 35.55 24.44C36.81 22.83 38.14 21.3 39.56 19.83C44.38 14.84 51.88 15.05 51.88 15.05L51.92 15C52.82 13.89 53.87 12.93 55.05 12.13C56.23 11.33 57.52 10.71 58.88 10.29C60.24 9.86 61.66 9.64 63.08 9.63C64.51 9.61 65.92 9.81 67.29 10.21C68.01 10.41 68.56 10.5 68.82 10.41C73.59 8.75 73.36 4.99 77.48 1.96C84.68 -3.34 108.58 2.73 111.95 12.49C114.68 20.39 126.87 24.22 131.42 30.26C132.13 31.21 132.83 32.16 133.52 33.13C133.84 33.58 134.15 34.03 134.47 34.49C135.28 35.65 136.06 36.83 136.83 38.02C137.59 39.22 138.33 40.42 139.06 41.64C139.78 42.86 140.48 44.09 141.16 45.33C141.84 46.57 142.5 47.83 143.13 49.09C143.55 49.92 143.95 50.75 144.34 51.59C144.73 52.43 145.1 53.28 145.47 54.13C145.83 54.98 146.18 55.84 146.51 56.71C146.84 57.57 147.16 58.44 147.47 59.31C152.22 73.16 150.59 83.47 137.5 80.93C135.95 80.62 134.43 80.35 132.96 80.11C130.82 79.77 128.76 79.48 126.77 79.26C124.09 78.95 121.55 78.75 119.13 78.66C118.32 78.63 117.52 78.61 116.74 78.59C105.16 78.43 96.58 80.61 90.04 83.98C88.93 84.55 87.88 85.15 86.89 85.79C86.51 86.03 86.13 86.28 85.76 86.53C85.39 86.79 85.03 87.05 84.67 87.31C84.31 87.58 83.95 87.85 83.6 88.13C83.25 88.41 82.9 88.7 82.56 88.99C82.08 89.39 81.62 89.81 81.16 90.23C80.71 90.66 80.26 91.09 79.83 91.54C79.39 91.98 78.97 92.44 78.55 92.9C78.14 93.37 77.73 93.84 77.34 94.32L77.25 94.43C69.6 103.76 67.08 114.09 61.76 115.91C39.02 123.68 24.63 95.49 23.16 67.92C23.08 66.53 23.04 65.15 23.03 63.76C23.03 63.15 23.03 62.53 23.04 61.92C23.07 60.31 23.14 58.72 23.26 57.15C23.3 56.55 23.35 55.95 23.41 55.35C23.47 54.71 23.54 54.07 23.62 53.44C24.2 48.79 25.22 44.37 26.68 40.38Z" />
	<path id="Layer" class="shp1" d="M102.49 58.35L103.52 60.56L96.94 63.61L95.91 61.4C95.34 60.17 95.37 56.4 97.18 55.55C99 54.71 101.92 57.13 102.49 58.35Z" />
	<path id="Layer" class="shp1" d="M79.5 87.36C79.39 87.36 79.27 87.33 79.17 87.28C79.07 87.23 78.98 87.15 78.91 87.06C78.85 86.96 78.8 86.85 78.79 86.74C78.77 86.62 78.79 86.51 78.83 86.4C78.84 86.35 78.86 86.31 78.89 86.27C78.91 86.23 78.94 86.19 78.97 86.16C79 86.12 79.04 86.09 79.08 86.06C79.11 86.04 79.16 86.01 79.2 85.99L113.18 70.25C113.26 70.21 113.36 70.19 113.45 70.18C113.54 70.18 113.64 70.19 113.73 70.23C113.82 70.26 113.9 70.31 113.97 70.37C114.04 70.44 114.09 70.51 114.13 70.6C114.17 70.68 114.2 70.78 114.2 70.87C114.2 70.96 114.19 71.06 114.16 71.15C114.12 71.23 114.07 71.32 114.01 71.39C113.95 71.45 113.87 71.51 113.78 71.55L113.78 71.55L79.8 87.29C79.78 87.31 79.76 87.32 79.73 87.32C79.71 87.33 79.68 87.34 79.66 87.34C79.63 87.35 79.61 87.35 79.58 87.36C79.55 87.36 79.53 87.36 79.5 87.36L79.5 87.36Z" />
	<path id="Layer" class="shp0" d="M96.37 66.48L106.08 61.98L121.32 94.68L111.6 99.18L96.37 66.48Z" />
	<path id="Layer" class="shp1" d="M74.92 23.61L75.96 25.82L69.38 28.87L68.34 26.65C67.77 25.43 67.8 21.65 69.62 20.81C71.44 19.97 74.35 22.38 74.92 23.61Z" />
	<path id="Layer" class="shp1" d="M110.32 104.01L107.33 105.4C107.22 105.45 107.1 105.5 106.99 105.53C106.87 105.57 106.75 105.6 106.62 105.61C106.5 105.63 106.37 105.64 106.25 105.63C106.13 105.63 106 105.61 105.88 105.59C105.45 105.49 105.15 105.22 105.08 104.87L104.38 101.63C104.25 101.01 104.76 100.29 105.59 99.91L107.24 99.14C108.07 98.76 108.95 98.84 109.33 99.33L111.37 101.95C111.59 102.24 111.61 102.63 111.41 103.03C111.34 103.14 111.28 103.24 111.2 103.34C111.12 103.44 111.04 103.53 110.94 103.61C110.85 103.69 110.75 103.77 110.65 103.84C110.54 103.9 110.43 103.96 110.32 104.01L110.32 104.01Z" />
	<path id="Layer" class="shp1" d="M101.13 108.56L98.14 109.94C98.03 110 97.92 110.04 97.8 110.08C97.68 110.12 97.56 110.14 97.43 110.16C97.31 110.18 97.19 110.18 97.06 110.18C96.94 110.17 96.81 110.16 96.69 110.14C96.26 110.04 95.96 109.77 95.89 109.41L95.19 106.17C95.06 105.56 95.57 104.84 96.4 104.45L98.05 103.69C98.88 103.3 99.76 103.38 100.14 103.88L102.18 106.5C102.4 106.79 102.42 107.18 102.22 107.58C102.16 107.69 102.09 107.79 102.01 107.89C101.93 107.98 101.85 108.07 101.75 108.16C101.66 108.24 101.56 108.32 101.46 108.38C101.35 108.45 101.25 108.51 101.13 108.56L101.13 108.56Z" />
	<path id="Layer" class="shp0" d="M71.4 37.3L81.11 32.8L111.91 98.9L102.2 103.4L71.4 37.3Z" />
	<path id="Layer" class="shp1" d="M91.19 66.88L90.1 64.48L90.73 64.19L91.81 66.58L107.55 101.37L106.92 101.66" />
	<path id="Layer" class="shp1" d="M103.48 64.89L102.39 62.5L103.02 62.21L104.1 64.59L119.84 99.38L119.21 99.67" />
	<path id="Layer" class="shp0" d="M85.69 38.09L72.53 44.19C71.7 42.89 69.17 36.22 69.74 34.25L69.31 32.36L78.4 28.15L79.61 29.64C81.42 30.2 84.94 36.45 85.69 38.09Z" />
	<path id="Layer" class="shp0" d="M78.78 28.23L69.4 32.58C69.06 32.74 68.69 32.68 68.58 32.45C68.57 32.44 68.57 32.43 68.57 32.42C68.56 32.41 68.56 32.4 68.56 32.39C68.56 32.39 68.55 32.38 68.55 32.37C68.55 32.36 68.55 32.35 68.55 32.34L68.06 27.18C68.04 26.96 68.23 26.7 68.52 26.57L74.74 23.69C75.03 23.55 75.35 23.57 75.5 23.73L79.15 27.43C79.33 27.62 79.23 27.94 78.92 28.15C78.91 28.16 78.9 28.17 78.89 28.18C78.87 28.18 78.86 28.19 78.85 28.2C78.84 28.2 78.83 28.21 78.81 28.22C78.8 28.22 78.79 28.23 78.78 28.23Z" />
	<path id="Layer" class="shp1" d="M86.13 68.69C86.11 68.69 86.08 68.68 86.06 68.68C86.03 68.68 86.01 68.68 85.98 68.68C85.96 68.67 85.93 68.67 85.91 68.67C85.88 68.66 85.86 68.66 85.83 68.65C85.76 68.64 85.7 68.61 85.63 68.58C85.57 68.55 85.51 68.52 85.45 68.47C85.39 68.43 85.34 68.38 85.3 68.33C85.25 68.27 85.22 68.21 85.18 68.15L79.45 55.84C79.21 55.33 79.53 54.68 80.16 54.39L88.56 50.5C89.19 50.21 89.89 50.39 90.13 50.9L95.86 63.2C95.89 63.27 95.91 63.33 95.92 63.4C95.94 63.47 95.94 63.54 95.94 63.61C95.94 63.68 95.92 63.75 95.91 63.82C95.89 63.89 95.86 63.96 95.83 64.02C95.79 64.09 95.75 64.16 95.7 64.22C95.65 64.28 95.6 64.34 95.54 64.39C95.49 64.45 95.42 64.5 95.36 64.54C95.29 64.58 95.22 64.62 95.15 64.65L86.76 68.54C86.71 68.57 86.66 68.59 86.61 68.6C86.56 68.62 86.5 68.64 86.45 68.65C86.4 68.66 86.35 68.67 86.29 68.68C86.24 68.68 86.19 68.68 86.13 68.69Z" />
	<path id="Layer" class="shp0" d="M77.57 75.05L87.28 70.55L102.52 103.25L92.8 107.75L77.57 75.05Z" />
	<path id="Layer" class="shp1" d="M75.32 28.77L72.47 30.09C71.92 30.35 71.18 29.92 70.81 29.15C70.45 28.37 70.61 27.53 71.16 27.28L74 25.96C74.55 25.7 75.29 26.13 75.66 26.9C76.02 27.68 75.86 28.52 75.32 28.77Z" />
	<path id="Layer" class="shp1" d="M83.88 66.83L84.91 69.05L78.33 72.1L77.3 69.88C76.73 68.66 76.76 64.88 78.57 64.03C80.39 63.19 83.3 65.61 83.88 66.83Z" />
	<path id="Layer" class="shp0" d="M48.4 56.49C47.76 56.92 47.1 55.91 47.75 55.5C48.4 55.07 49.05 56.09 48.4 56.49Z" />
	<path id="Layer" class="shp0" d="M115.18 41.92C114.53 42.34 113.88 41.33 114.53 40.92C115.17 40.49 115.83 41.51 115.18 41.92Z" />
	<path id="Layer" class="shp0" d="M69.66 53.51C69.02 53.94 68.36 52.92 69.02 52.52C69.66 52.09 70.32 53.11 69.66 53.51Z" />
	<path id="Layer" class="shp0" d="M48.4 93.27C47.76 93.7 47.1 92.68 47.75 92.28C48.4 91.85 49.05 92.86 48.4 93.27Z" />
	<path id="Layer" class="shp0" d="M81.12 10.28C80.48 10.7 79.82 9.69 80.48 9.28C81.12 8.85 81.78 9.87 81.12 10.28Z" />
	<path id="Layer" class="shp0" d="M49.56 29.82C48.92 30.25 48.26 29.24 48.92 28.83C49.56 28.4 50.22 29.42 49.56 29.82Z" />
	<path id="Layer" class="shp0" d="M94.96 24.22L94.9 24.49L94.49 24.4L94.4 24.81L94.13 24.75L94.22 24.34L93.81 24.25L93.87 23.98L94.28 24.07L94.37 23.66L94.64 23.72L94.55 24.13L94.96 24.22L94.96 24.22Z" />
	<path id="Layer" class="shp0" d="M28.5 58.14L28.44 58.41L28.03 58.32L27.94 58.73L27.67 58.67L27.76 58.27L27.35 58.18L27.41 57.9L27.81 57.99L27.9 57.59L28.18 57.65L28.09 58.05L28.5 58.14L28.5 58.14Z" />
	<path id="Layer" class="shp1" d="M112.2 75.45C112.03 75.52 111.85 75.57 111.66 75.58C111.48 75.58 111.29 75.56 111.12 75.49C110.94 75.43 110.78 75.33 110.65 75.21C110.51 75.08 110.4 74.93 110.32 74.76L108.64 71.16C108.49 70.82 108.47 70.43 108.6 70.08C108.73 69.73 108.99 69.45 109.33 69.29C109.67 69.13 110.06 69.12 110.41 69.24C110.76 69.37 111.05 69.63 111.2 69.97L112.88 73.58C112.96 73.74 113.01 73.93 113.01 74.11C113.02 74.3 112.99 74.48 112.93 74.65C112.86 74.83 112.77 74.99 112.64 75.12C112.52 75.26 112.37 75.37 112.2 75.45L112.2 75.45Z" />
	<path id="Layer" class="shp1" d="M83.63 88.7C83.46 88.78 83.28 88.82 83.09 88.83C82.91 88.84 82.72 88.81 82.55 88.74C82.37 88.68 82.21 88.58 82.08 88.46C81.94 88.33 81.83 88.18 81.75 88.02L80.07 84.41C79.91 84.07 79.9 83.68 80.03 83.33C80.15 82.98 80.42 82.7 80.76 82.54C81.1 82.38 81.48 82.37 81.84 82.5C82.19 82.62 82.47 82.89 82.63 83.22L84.31 86.83C84.39 87 84.43 87.18 84.44 87.36C84.45 87.55 84.42 87.73 84.36 87.91C84.29 88.08 84.2 88.24 84.07 88.38C83.95 88.51 83.79 88.62 83.63 88.7L83.63 88.7Z" />
	<path id="Layer" class="shp0" d="M109.61 67.57L98.35 72.79C97.63 71.68 95.47 65.97 95.95 64.28L96.19 62.39L102.92 59.1L104.41 60.34C106.51 59.64 109.59 64.82 109.61 67.57Z" />
	<path id="Layer" class="shp1" d="M104.38 67.21L101.53 68.53C100.98 68.78 100.15 68.15 99.67 67.13C99.19 66.1 99.25 65.06 99.8 64.8L102.65 63.48C103.2 63.23 104.03 63.86 104.51 64.88C104.99 65.91 104.93 66.95 104.38 67.21Z" />
	<path id="Layer" class="shp1" d="M80.22 74L79.13 71.61L79.76 71.32L80.85 73.7L96.58 108.49L95.96 108.78" />
	<path id="Layer" class="shp0" d="M91 76.05L79.74 81.27C78.07 80.41 75.53 74.82 77.34 72.76L77.58 70.87L84.31 67.58L85.8 68.83C87.34 69.3 90.35 74.65 91 76.05Z" />
	<path id="Layer" class="shp1" d="M85.54 75.19L82.69 76.51C82.14 76.77 81.36 76.25 80.94 75.36C80.53 74.47 80.64 73.54 81.19 73.29L84.04 71.97C84.59 71.71 85.37 72.23 85.78 73.12C86.2 74.01 86.09 74.94 85.54 75.19Z" />
	<path id="Layer" class="shp3" d="M28.45 51C18.99 51 11.34 43.37 11.34 33.93C11.34 24.5 18.99 16.87 28.45 16.87C37.92 16.87 45.56 24.5 45.56 33.93C45.56 43.37 37.92 51 28.45 51Z" />
	<path id="Layer" class="shp4" d="M98.61 51.71C98.6 51.89 98.51 52.06 98.36 52.17C98.21 52.27 98.02 52.3 97.84 52.23C97.67 52.17 97.54 52.03 97.48 51.85C97.43 51.68 97.47 51.49 97.59 51.34L109 21.42L98.61 51.71L98.61 51.71Z" />
	<path id="Layer" class="shp1" d="M125.11 33.65C123.07 34.33 120.82 34.99 118.34 35.64C105.53 39.01 88.35 41.63 69.97 43.03C51.6 44.43 34.22 44.44 21.04 43.06C14.62 42.39 9.55 41.42 5.95 40.18C2.15 38.87 0.15 37.3 0.01 35.49C-0.26 31.98 6.69 28.89 12.56 26.92L12.72 27.39C4.65 30.1 0.31 32.96 0.5 35.45C0.75 38.63 8.25 41.22 21.1 42.57C34.24 43.95 51.59 43.94 69.94 42.54C88.28 41.14 105.43 38.52 118.21 35.16C130.7 31.88 137.72 28.18 137.48 25.01C137.28 22.38 132.07 20.12 122.82 18.66L122.89 18.17C129.62 19.23 137.69 21.27 137.98 24.97C138.12 26.77 136.38 28.64 132.82 30.51C130.79 31.58 128.21 32.63 125.11 33.65Z" />
	<path id="Layer" class="shp3" d="M130.14 63.92C129.15 63.92 128.36 63.13 128.36 62.14C128.36 61.16 129.15 60.37 130.14 60.37C131.12 60.37 131.91 61.16 131.91 62.14C131.91 63.13 131.12 63.92 130.14 63.92Z" />
	<path id="Layer" class="shp5" d="M141.43 111.96C140.45 111.96 139.65 111.17 139.65 110.19C139.65 109.21 140.45 108.41 141.43 108.41C142.42 108.41 143.21 109.21 143.21 110.19C143.21 111.17 142.42 111.96 141.43 111.96Z" />
	<path id="Layer" class="shp5" d="M80.8 122.75C78.88 122.75 77.34 121.21 77.34 119.3C77.34 117.39 78.88 115.84 80.8 115.84C82.72 115.84 84.27 117.39 84.27 119.3C84.27 121.21 82.72 122.75 80.8 122.75Z" />
	<path id="Layer" class="shp1" d="M54.39 77C53.41 77 52.61 76.21 52.61 75.23C52.61 74.25 53.41 73.46 54.39 73.46C55.37 73.46 56.17 74.25 56.17 75.23C56.17 76.21 55.37 77 54.39 77Z" />
	<path id="Layer" class="shp0" d="M114.16 79.31L121.83 81.29L126.53 90.51L118.58 90.82L114.16 79.31L114.16 79.31Z" />
	<path id="Layer" class="shp6" d="M96.45 66.03L100.67 70.24L111.4 93.36L109.42 95.06L96.45 66.03L96.45 66.03Z" />
	<path id="Layer" class="shp6" d="M87.27 69.85L100.31 98.85L97.72 99.18L87.6 75.79L87.27 69.85L87.27 69.85Z" />
	<path id="Layer" class="shp0" d="M87 93.87L91.84 105.2L85.91 110.5L82.87 100.61L87 93.87L87 93.87Z" />
	<path id="Layer" class="shp1" d="M123.49 98.01C121.34 98.01 118.99 97.93 116.44 97.77C103.21 96.93 86.08 94.02 68.2 89.57C50.32 85.12 33.83 79.66 21.76 74.21C15.88 71.55 11.37 69.03 8.35 66.73C5.15 64.29 3.75 62.16 4.19 60.41C5.05 56.99 12.62 56.24 18.82 56.22L18.82 56.72C10.31 56.75 5.28 58.1 4.67 60.53C3.9 63.62 10.2 68.44 21.96 73.76C34.01 79.2 50.47 84.65 68.32 89.09C86.17 93.53 103.27 96.44 116.47 97.27C129.36 98.09 137.19 96.79 137.96 93.7C138.6 91.13 134.37 87.36 126.05 83.06L126.28 82.62C132.33 85.74 139.35 90.22 138.45 93.82C138.01 95.57 135.77 96.79 131.8 97.45C129.53 97.82 126.75 98.01 123.49 98.01Z" />
</svg>