<svg version="1.2" baseProfile="tiny-ps" xmlns="http://www.w3.org/2000/svg" viewBox="0 0 150 95" width="150" height="95">
	<title>undraw_collaborators_re_hont-svg</title>
	<style>
		tspan { white-space:pre }
		.shp0 { fill: #e6e6e6 } 
		.shp1 { fill: #ffffff } 
		.shp2 { fill: #f2f2f2 } 
		.shp3 { fill: #ffb8b8 } 
		.shp4 { fill: #3f3d56 } 
		.shp5 { fill: #2f2e41 } 
		.shp6 { fill: #cccccc } 
		.shp7 { fill: #f5793b } 
		.shp8 { fill: #ffb6b6 } 
		.shp9 { fill: #fd6584 } 
		.shp10 { fill: #e4e4e4 } 
	</style>
	<path id="Layer" class="shp0" d="M88.94 2.91C99.74 -2.89 113.43 0.15 120.69 10.44L120.45 10.62C113.27 0.46 99.75 -2.55 89.09 3.18C88.86 3.3 88.64 3.43 88.41 3.56C88.19 3.69 87.97 3.82 87.75 3.95C87.54 4.09 87.32 4.23 87.11 4.37C86.89 4.51 86.68 4.66 86.47 4.81C75.51 12.62 72.92 27.94 80.69 38.95L80.44 39.12C72.57 27.97 75.2 12.47 86.3 4.56C86.51 4.41 86.72 4.26 86.94 4.12C87.15 3.97 87.37 3.83 87.59 3.7C87.82 3.56 88.04 3.42 88.26 3.29C88.49 3.16 88.72 3.04 88.94 2.91L88.94 2.91Z" />
	<path id="Layer" class="shp0" d="M146.11 27.71L110.62 24.94C110.35 24.92 110.08 24.84 109.84 24.72C109.59 24.59 109.37 24.42 109.2 24.21C109.02 24 108.88 23.76 108.8 23.5C108.71 23.24 108.68 22.96 108.7 22.69L110.24 5.36C110.26 5.08 110.34 4.82 110.46 4.57C110.59 4.33 110.76 4.11 110.96 3.93C111.17 3.75 111.41 3.62 111.67 3.53C111.93 3.45 112.21 3.41 112.48 3.43L147.97 6.21C148.25 6.23 148.51 6.3 148.76 6.43C149 6.55 149.22 6.73 149.39 6.93C149.57 7.14 149.71 7.39 149.79 7.65C149.88 7.91 149.91 8.18 149.89 8.46L148.35 25.79C148.33 26.06 148.25 26.33 148.13 26.57C148.01 26.82 147.83 27.04 147.63 27.21C147.42 27.39 147.18 27.53 146.92 27.61C146.66 27.7 146.38 27.73 146.11 27.71Z" />
	<path id="Layer" class="shp1" d="M137.73 23.8C137.46 23.8 137.19 23.79 136.92 23.77L113.98 21.97C113.52 21.94 113.07 21.81 112.66 21.6C112.25 21.39 111.89 21.1 111.59 20.75C111.29 20.4 111.06 19.99 110.92 19.55C110.78 19.11 110.72 18.65 110.76 18.19L111.28 11.43C111.32 10.97 111.44 10.52 111.65 10.11C111.86 9.7 112.15 9.33 112.5 9.03C112.85 8.73 113.25 8.51 113.69 8.36C114.13 8.22 114.59 8.16 115.04 8.2L144.71 10.52C145.16 10.55 145.61 10.68 146.02 10.89C146.43 11.1 146.8 11.39 147.09 11.74C147.39 12.09 147.62 12.5 147.76 12.94C147.91 13.37 147.96 13.84 147.93 14.3C147.83 15.58 147.49 16.83 146.93 17.98C146.38 19.14 145.61 20.18 144.68 21.05C143.74 21.92 142.65 22.61 141.46 23.08C140.27 23.55 139 23.79 137.73 23.8L137.73 23.8Z" />
	<path id="Layer" class="shp0" d="M144 15.89L114.92 13.61C114.8 13.6 114.68 13.55 114.6 13.45C114.52 13.36 114.48 13.24 114.49 13.11C114.5 12.99 114.56 12.88 114.65 12.8C114.75 12.72 114.87 12.68 114.99 12.69L144.07 14.96C144.19 14.97 144.3 15.03 144.38 15.12C144.46 15.22 144.5 15.34 144.49 15.46C144.48 15.58 144.43 15.7 144.33 15.78C144.24 15.86 144.12 15.9 144 15.89L144 15.89Z" />
	<path id="Layer" class="shp0" d="M131.92 16.79L114.78 15.45C114.66 15.44 114.54 15.38 114.46 15.28C114.38 15.19 114.34 15.07 114.35 14.95C114.36 14.82 114.42 14.71 114.51 14.63C114.61 14.55 114.73 14.51 114.85 14.52L131.99 15.86C132.12 15.87 132.23 15.93 132.31 16.02C132.39 16.11 132.43 16.24 132.42 16.36C132.41 16.48 132.35 16.6 132.26 16.68C132.17 16.76 132.04 16.8 131.92 16.79L131.92 16.79Z" />
	<path id="Layer" class="shp0" d="M135.7 18.92L114.64 17.28C114.51 17.27 114.4 17.21 114.32 17.12C114.24 17.02 114.2 16.9 114.21 16.78C114.22 16.65 114.28 16.54 114.37 16.46C114.46 16.38 114.59 16.34 114.71 16.35L135.77 18C135.89 18.01 136.01 18.06 136.09 18.16C136.17 18.25 136.21 18.37 136.2 18.5C136.19 18.62 136.13 18.73 136.04 18.81C135.94 18.89 135.82 18.93 135.7 18.92L135.7 18.92Z" />
	<path id="Layer" class="shp0" d="M143.74 51.23L108.24 48.46C107.97 48.44 107.7 48.36 107.46 48.24C107.22 48.11 107 47.94 106.82 47.73C106.64 47.52 106.51 47.28 106.42 47.02C106.34 46.76 106.31 46.48 106.33 46.21L107.87 28.88C107.89 28.61 107.96 28.34 108.09 28.09C108.21 27.85 108.38 27.63 108.59 27.45C108.8 27.27 109.04 27.14 109.3 27.05C109.56 26.97 109.83 26.93 110.11 26.95L145.6 29.73C145.87 29.75 146.14 29.83 146.38 29.95C146.62 30.08 146.84 30.25 147.02 30.46C147.2 30.67 147.33 30.91 147.42 31.17C147.5 31.43 147.54 31.71 147.51 31.98L145.98 49.31C145.95 49.58 145.88 49.85 145.75 50.09C145.63 50.34 145.46 50.56 145.25 50.74C145.04 50.91 144.8 51.05 144.54 51.14C144.28 51.22 144.01 51.25 143.74 51.23L143.74 51.23Z" />
	<path id="Layer" class="shp1" d="M135.34 47.32C135.08 47.32 134.81 47.31 134.54 47.29L111.6 45.49C111.14 45.46 110.7 45.33 110.29 45.12C109.88 44.91 109.51 44.62 109.21 44.27C108.91 43.92 108.69 43.51 108.54 43.08C108.4 42.64 108.35 42.17 108.38 41.71L108.91 34.96C108.94 34.5 109.07 34.05 109.28 33.63C109.48 33.22 109.77 32.86 110.12 32.55C110.47 32.25 110.88 32.03 111.31 31.88C111.75 31.74 112.21 31.68 112.67 31.72L142.33 34.04C142.79 34.07 143.24 34.2 143.65 34.41C144.06 34.62 144.42 34.91 144.72 35.26C145.02 35.61 145.25 36.02 145.39 36.46C145.53 36.9 145.59 37.36 145.55 37.82C145.45 39.1 145.11 40.35 144.56 41.51C144 42.66 143.23 43.7 142.29 44.57C141.36 45.45 140.26 46.13 139.08 46.6C137.89 47.07 136.62 47.32 135.34 47.32L135.34 47.32Z" />
	<path id="Layer" class="shp0" d="M141.62 39.41L112.54 37.14C112.42 37.13 112.31 37.07 112.23 36.97C112.15 36.88 112.11 36.76 112.12 36.64C112.13 36.51 112.19 36.4 112.28 36.32C112.37 36.24 112.49 36.2 112.62 36.21L141.69 38.48C141.82 38.49 141.93 38.55 142.01 38.64C142.09 38.74 142.13 38.86 142.12 38.98C142.11 39.1 142.05 39.22 141.96 39.3C141.86 39.38 141.74 39.42 141.62 39.41L141.62 39.41Z" />
	<path id="Layer" class="shp0" d="M129.55 40.31L112.4 38.97C112.28 38.96 112.17 38.9 112.09 38.81C112.01 38.71 111.97 38.59 111.98 38.47C111.99 38.34 112.04 38.23 112.14 38.15C112.23 38.07 112.35 38.03 112.47 38.04L129.62 39.38C129.74 39.39 129.86 39.45 129.93 39.54C130.01 39.64 130.05 39.76 130.04 39.88C130.03 40 129.98 40.12 129.88 40.2C129.79 40.28 129.67 40.32 129.55 40.31L129.55 40.31Z" />
	<path id="Layer" class="shp0" d="M133.32 42.45L112.26 40.8C112.14 40.79 112.02 40.73 111.94 40.64C111.87 40.54 111.83 40.42 111.84 40.3C111.84 40.18 111.9 40.06 112 39.98C112.09 39.9 112.21 39.86 112.33 39.87L133.4 41.52C133.52 41.53 133.63 41.59 133.71 41.68C133.79 41.77 133.83 41.9 133.82 42.02C133.81 42.14 133.75 42.26 133.66 42.34C133.57 42.42 133.45 42.46 133.32 42.45L133.32 42.45Z" />
	<path id="Layer" class="shp0" d="M53.45 42.18C52.54 40.11 52.49 37.76 53.3 35.65C54.12 33.54 55.74 31.84 57.8 30.92C59.86 30.01 62.2 29.95 64.3 30.77C66.4 31.59 68.09 33.21 69 35.29L68.72 35.41C67.85 33.41 66.22 31.84 64.19 31.06C62.16 30.27 59.91 30.32 57.92 31.2C55.93 32.08 54.37 33.72 53.59 35.76C52.8 37.79 52.85 40.06 53.73 42.06L53.45 42.18Z" />
	<path id="Layer" class="shp2" d="M129.79 91.42L129.86 91.2C129.63 90.25 129.41 89.3 129.45 88.35C129.49 87.4 129.84 86.45 130.61 85.86C131.85 84.9 133.76 85.07 135.46 85.08C139.84 85.12 144.08 83.7 147.19 81.17C147.59 84.82 145.01 88.15 141.54 89.8C138.07 91.45 133.87 91.68 129.79 91.42Z" />
	<path id="Layer" class="shp1" d="M147.1 81.16C147.15 81.07 147.32 81.13 147.27 81.22C147.08 81.59 146.88 81.95 146.65 82.3C146.43 82.65 146.19 82.99 145.93 83.32C145.67 83.65 145.4 83.96 145.11 84.26C144.83 84.57 144.53 84.85 144.21 85.13C143.93 85.38 143.63 85.62 143.33 85.84C143.03 86.07 142.71 86.28 142.39 86.48C142.07 86.68 141.74 86.87 141.41 87.04C141.07 87.22 140.73 87.38 140.38 87.52C140.22 87.59 140.06 87.66 139.89 87.71C139.73 87.77 139.56 87.82 139.39 87.86C139.22 87.91 139.05 87.94 138.88 87.97C138.7 88 138.53 88.02 138.36 88.04C138.18 88.05 138.01 88.05 137.84 88.04C137.66 88.03 137.49 88.01 137.32 87.98C137.15 87.95 136.98 87.92 136.82 87.87C136.65 87.82 136.49 87.77 136.32 87.71C135.69 87.47 135.05 87.17 134.37 87.12C134.19 87.11 134.02 87.12 133.84 87.15C133.67 87.18 133.5 87.23 133.33 87.3C133.17 87.37 133.02 87.45 132.87 87.56C132.73 87.66 132.6 87.78 132.48 87.91C131.48 88.97 131.3 90.55 130.04 91.43C129.95 91.49 129.83 91.36 129.92 91.3C130.64 90.8 131.01 90.03 131.38 89.29C131.71 88.62 132.08 87.96 132.69 87.48C132.82 87.37 132.96 87.29 133.11 87.21C133.26 87.14 133.41 87.08 133.57 87.04C133.73 86.99 133.89 86.97 134.05 86.96C134.22 86.95 134.38 86.95 134.55 86.97C135.21 87.06 135.83 87.36 136.46 87.59C136.63 87.65 136.79 87.7 136.97 87.75C137.14 87.79 137.31 87.82 137.49 87.85C137.66 87.87 137.84 87.88 138.01 87.88C138.19 87.89 138.37 87.88 138.54 87.86C138.71 87.84 138.89 87.81 139.06 87.77C139.23 87.73 139.4 87.69 139.56 87.64C139.73 87.59 139.9 87.54 140.06 87.47C140.22 87.41 140.38 87.34 140.54 87.27C143.43 85.99 145.76 83.79 147.1 81.16L147.1 81.16Z" />
	<path id="Layer" class="shp1" d="M141.51 86.9C141.44 86.81 141.57 86.71 141.64 86.8C141.81 87 142.01 87.17 142.23 87.31C142.45 87.45 142.69 87.56 142.95 87.62C143.2 87.69 143.46 87.71 143.72 87.7C143.98 87.68 144.24 87.62 144.48 87.53C144.58 87.49 144.67 87.64 144.57 87.68C144.3 87.78 144.03 87.84 143.75 87.86C143.47 87.87 143.19 87.85 142.91 87.78C142.64 87.71 142.38 87.6 142.14 87.45C141.91 87.3 141.69 87.11 141.51 86.9L141.51 86.9Z" />
	<path id="Layer" class="shp1" d="M136.77 87.74C136.75 87.84 136.57 87.82 136.59 87.72C136.62 87.45 136.68 87.19 136.77 86.94C136.86 86.68 136.98 86.44 137.12 86.21C137.26 85.98 137.42 85.77 137.6 85.57C137.79 85.38 137.99 85.2 138.22 85.05C138.3 84.99 138.42 85.12 138.34 85.18C138.12 85.32 137.93 85.49 137.75 85.68C137.57 85.86 137.41 86.07 137.28 86.29C137.14 86.51 137.03 86.74 136.95 86.99C136.86 87.23 136.8 87.48 136.77 87.74L136.77 87.74Z" />
	<path id="Layer" class="shp1" d="M145.27 83.92C145.27 83.93 145.28 83.94 145.28 83.95C145.29 83.96 145.29 83.97 145.29 83.98C145.29 83.99 145.29 84 145.28 84.01C145.28 84.02 145.27 84.03 145.26 84.03C145.25 84.04 145.24 84.04 145.23 84.05C145.22 84.05 145.21 84.05 145.19 84.05C145.18 84.05 145.17 84.04 145.16 84.04C145.15 84.04 145.14 84.03 145.13 84.02C145.04 83.95 144.96 83.87 144.89 83.77C144.82 83.68 144.76 83.58 144.72 83.47C144.67 83.37 144.64 83.25 144.62 83.14C144.6 83.02 144.6 82.91 144.61 82.79C144.62 82.69 144.8 82.71 144.79 82.81C144.78 82.92 144.78 83.02 144.8 83.13C144.81 83.23 144.84 83.33 144.88 83.43C144.93 83.53 144.98 83.62 145.04 83.7C145.11 83.78 145.18 83.86 145.27 83.92L145.27 83.92Z" />
	<path id="Layer" class="shp2" d="M135.88 73.59C137.63 75.51 138.34 77.98 138.18 80.37C138.16 80.67 138.13 80.97 138.08 81.26C138.04 81.56 137.98 81.85 137.91 82.14C137.84 82.43 137.75 82.71 137.65 83C137.56 83.28 137.45 83.56 137.32 83.83C137.28 83.93 137.23 84.04 137.17 84.14C137.12 84.25 137.07 84.35 137.02 84.45C136.96 84.55 136.91 84.66 136.85 84.76C136.8 84.86 136.74 84.96 136.68 85.06C136.57 85.24 136.45 85.42 136.33 85.6C136.21 85.77 136.09 85.95 135.96 86.12C135.84 86.29 135.71 86.46 135.57 86.62C135.44 86.79 135.3 86.95 135.16 87.11C135.12 87.16 135.08 87.2 135.04 87.24C133.76 88.66 132.21 89.89 130.56 90.97C130.56 90.97 130.56 90.97 130.55 90.97C130.34 91.12 130.12 91.26 129.9 91.39C129.89 91.4 129.87 91.41 129.86 91.42C129.86 91.42 129.85 91.42 129.85 91.43C129.83 91.43 129.82 91.44 129.8 91.45C129.78 91.47 129.76 91.48 129.74 91.49C129.7 91.52 129.66 91.54 129.62 91.57L129.52 91.34C129.51 91.33 129.5 91.32 129.48 91.31L126.73 85.7C126.74 85.68 126.75 85.65 126.77 85.63C126.78 85.6 126.8 85.57 126.81 85.55C126.82 85.52 126.84 85.5 126.85 85.48C126.87 85.45 126.89 85.43 126.9 85.4C127.51 84.48 128.63 83.81 129.6 83.12C129.77 82.99 129.94 82.87 130.11 82.74C130.28 82.61 130.44 82.47 130.61 82.34C130.77 82.2 130.93 82.06 131.09 81.92C131.24 81.77 131.4 81.63 131.55 81.48C131.92 81.11 132.27 80.73 132.6 80.33C132.93 79.92 133.24 79.51 133.52 79.07C133.81 78.64 134.07 78.19 134.31 77.73C134.55 77.26 134.77 76.79 134.96 76.3C134.98 76.24 135.01 76.18 135.03 76.12C135.11 75.92 135.18 75.71 135.24 75.51C135.31 75.31 135.37 75.1 135.43 74.89C135.48 74.69 135.53 74.48 135.58 74.27C135.63 74.06 135.67 73.85 135.71 73.64C135.72 73.57 135.73 73.51 135.74 73.45C135.79 73.5 135.83 73.54 135.88 73.59Z" />
	<path id="Layer" class="shp1" d="M135.67 73.49C135.64 73.38 135.81 73.34 135.84 73.44C135.94 73.85 136.03 74.26 136.1 74.67C136.17 75.08 136.22 75.5 136.24 75.91C136.27 76.33 136.28 76.75 136.27 77.17C136.26 77.58 136.23 78 136.18 78.41C136.14 78.77 136.08 79.13 136 79.48C135.93 79.83 135.84 80.18 135.74 80.53C135.63 80.87 135.51 81.21 135.37 81.54C135.24 81.88 135.09 82.2 134.92 82.52C134.85 82.67 134.77 82.81 134.69 82.95C134.6 83.08 134.51 83.22 134.41 83.35C134.31 83.48 134.21 83.6 134.1 83.72C133.99 83.84 133.88 83.95 133.75 84.06C133.63 84.16 133.5 84.26 133.36 84.34C133.22 84.43 133.08 84.51 132.93 84.57C132.78 84.64 132.63 84.7 132.48 84.75C132.33 84.8 132.17 84.84 132.01 84.87C131.38 85.02 130.69 85.11 130.15 85.43C129.53 85.81 129.29 86.46 129.27 87.13C129.23 88.57 130.16 90.01 129.81 91.44C129.78 91.54 129.61 91.5 129.63 91.4C129.84 90.58 129.59 89.72 129.37 88.9C129.17 88.15 129 87.39 129.14 86.65C129.16 86.5 129.21 86.35 129.26 86.21C129.32 86.06 129.4 85.93 129.49 85.81C129.58 85.68 129.69 85.57 129.8 85.47C129.92 85.37 130.05 85.29 130.19 85.22C130.75 84.93 131.41 84.85 132.03 84.7C132.19 84.67 132.35 84.62 132.51 84.57C132.66 84.51 132.82 84.45 132.96 84.37C133.11 84.3 133.25 84.21 133.39 84.12C133.52 84.02 133.65 83.92 133.77 83.8C133.89 83.69 134 83.57 134.1 83.45C134.2 83.32 134.3 83.19 134.39 83.06C134.49 82.93 134.57 82.79 134.65 82.65C134.73 82.51 134.81 82.37 134.87 82.22C136.17 79.56 136.44 76.44 135.67 73.49L135.67 73.49Z" />
	<path id="Layer" class="shp1" d="M135.35 81.38C135.24 81.35 135.27 81.19 135.38 81.22C136.44 81.56 137.55 81.17 138 80.31C138.05 80.21 138.21 80.3 138.16 80.39C137.69 81.31 136.48 81.74 135.35 81.38L135.35 81.38Z" />
	<path id="Layer" class="shp1" d="M132.21 84.74C132.06 84.52 131.93 84.27 131.83 84.02C131.73 83.76 131.65 83.5 131.6 83.23C131.55 82.96 131.53 82.69 131.54 82.41C131.54 82.14 131.58 81.87 131.64 81.6C131.66 81.5 131.84 81.54 131.81 81.64C131.75 81.9 131.72 82.16 131.72 82.42C131.71 82.69 131.73 82.95 131.78 83.21C131.83 83.47 131.9 83.72 132 83.97C132.09 84.21 132.22 84.44 132.36 84.66C132.42 84.76 132.27 84.84 132.21 84.74Z" />
	<path id="Layer" class="shp1" d="M136.15 76.82C136.16 76.82 136.18 76.83 136.18 76.83C136.19 76.84 136.2 76.85 136.21 76.86C136.22 76.87 136.22 76.88 136.22 76.89C136.23 76.9 136.23 76.91 136.23 76.92C136.22 76.97 136.17 76.98 136.12 76.98C136 76.96 135.88 76.93 135.76 76.89C135.65 76.85 135.53 76.8 135.43 76.73C135.32 76.67 135.23 76.59 135.14 76.5C135.05 76.42 134.97 76.32 134.9 76.22C134.84 76.13 134.99 76.04 135.05 76.14C135.11 76.23 135.18 76.32 135.26 76.4C135.34 76.48 135.43 76.54 135.53 76.6C135.62 76.66 135.72 76.71 135.83 76.75C135.93 76.78 136.04 76.81 136.15 76.82L136.15 76.82Z" />
	<path id="Layer" class="shp3" d="M141.59 50.01C142 50.4 142.17 50.99 142.04 51.54C141.91 52.09 141.5 52.54 140.96 52.72C140.43 52.89 139.83 52.78 139.41 52.4C138.98 52.03 138.77 51.46 138.86 50.9C138.87 50.86 138.88 50.81 138.9 50.76L135.99 42.04C135.99 42.04 132.71 37.63 132.28 35.27L135.34 33.25L139.48 38.73L141.59 50.01L141.59 50.01Z" />
	<path id="Layer" class="shp4" d="M128.66 32.58L128.36 29.75C128.34 29.48 128.35 29.2 128.4 28.93C128.45 28.65 128.53 28.39 128.65 28.14C128.78 27.89 128.93 27.66 129.12 27.45C129.3 27.25 129.51 27.07 129.75 26.92L129.75 26.92C130.07 26.72 130.42 26.59 130.78 26.52C131.15 26.46 131.53 26.46 131.89 26.54C132.26 26.61 132.61 26.75 132.92 26.96C133.23 27.16 133.5 27.42 133.72 27.73C135.05 29.59 136.49 32.13 135.84 33.61L135.83 33.63L132.36 36.46L128.66 32.58Z" />
	<path id="Layer" class="shp3" d="M120.08 92.6L117.77 92.6L116.67 83.64L120.08 83.64L120.08 92.6L120.08 92.6Z" />
	<path id="Layer" class="shp5" d="M120.67 94.85L113.22 94.85L113.22 94.75C113.22 94.37 113.29 93.99 113.44 93.64C113.59 93.28 113.8 92.96 114.07 92.69C114.34 92.42 114.66 92.21 115.01 92.06C115.36 91.91 115.74 91.84 116.12 91.84L116.12 91.84L117.48 90.8L120.02 91.84L120.67 91.84L120.67 94.85Z" />
	<path id="Layer" class="shp3" d="M130.34 92.6L128.03 92.6L126.93 83.64L130.34 83.64L130.34 92.6L130.34 92.6Z" />
	<path id="Layer" class="shp5" d="M130.93 94.85L123.47 94.85L123.47 94.75C123.47 94.37 123.55 93.99 123.69 93.64C123.84 93.28 124.05 92.96 124.32 92.69C124.59 92.42 124.91 92.21 125.26 92.06C125.62 91.91 125.99 91.84 126.37 91.84L126.37 91.84L127.74 90.8L130.28 91.84L130.93 91.84L130.93 94.85Z" />
	<path id="Layer" class="shp5" d="M133.86 54.02C133.86 54.02 134.13 57.27 133.46 60.39C132.78 63.51 132.78 72.29 132.78 72.29L131.3 89.4L126.84 89L125.63 60.39L121.31 70.01L121.72 71.37L121.18 71.71C121.18 71.71 121.58 74.35 121.31 74.35C121.04 74.35 120.37 74.76 120.37 74.76L120.91 88.72L116.32 88.59L114.7 68.93L116.45 57.68L116.59 55.51L117.2 55.53L117.51 54.63L118.07 53.07L133.86 54.02Z" />
	<path id="Layer" class="shp4" d="M134.05 54.69C133.97 54.68 126.09 53.48 124.1 54.28C122.24 55.03 118.03 53.97 117.27 53.46C117.17 53.39 117.13 53.33 117.13 53.27C117.13 52.86 118.25 51.36 118.42 51.14L118.82 49.22L119.75 48.82L119.48 47.49L120.7 46.13L120.7 44.76L121.78 37.21L121.51 31.14C121.48 30.53 121.56 29.93 121.74 29.35C121.91 28.77 122.19 28.23 122.55 27.75C122.92 27.27 123.36 26.85 123.87 26.53C124.37 26.2 124.93 25.96 125.52 25.82L126.74 23.51L130.29 23.51L132.5 26.79L134.31 28.51C134.75 28.92 135.14 29.4 135.45 29.92C135.77 30.44 136.02 31.01 136.19 31.59C136.36 32.18 136.46 32.79 136.47 33.4C136.48 34.01 136.41 34.62 136.26 35.21L135.48 38.36L134.94 43.11L134.94 43.13L134 44.07L134.13 45.13L134.41 47.49L133.18 47.89C133.47 48.52 135.4 52.86 134.12 54.66L134.09 54.7L134.05 54.69Z" />
	<path id="Layer" class="shp6" d="M103.18 94.79C103.18 94.77 103.18 94.75 103.19 94.72C103.2 94.7 103.21 94.68 103.23 94.67C103.25 94.65 103.27 94.64 103.29 94.63C103.31 94.62 103.34 94.61 103.36 94.61L145.83 94.61C145.87 94.61 145.92 94.63 145.95 94.67C145.99 94.7 146.01 94.75 146.01 94.79C146.01 94.84 145.99 94.89 145.95 94.92C145.92 94.96 145.87 94.97 145.83 94.97L103.36 94.97C103.33 94.97 103.31 94.97 103.29 94.96C103.27 94.95 103.25 94.94 103.23 94.92C103.21 94.9 103.2 94.88 103.19 94.86C103.18 94.84 103.18 94.82 103.18 94.79L103.18 94.79Z" />
	<path id="Layer" class="shp3" d="M128.05 22.45C125.45 22.45 123.35 20.34 123.35 17.72C123.35 15.1 125.45 12.99 128.05 12.99C130.66 12.99 132.76 15.1 132.76 17.72C132.76 20.34 130.66 22.45 128.05 22.45Z" />
	<path id="Layer" class="shp5" d="M127.5 22.53C127.47 22.53 127.43 22.53 127.4 22.53C127.36 22.52 127.33 22.52 127.29 22.51C127.26 22.5 127.23 22.49 127.19 22.48L127.17 22.45L127.18 22.41C127.2 22.37 127.22 22.35 127.46 22.32C127.76 22.28 128.08 21.63 128.22 20.73C128.37 19.8 128.31 18.69 127.82 18.45C127.79 18.43 127.75 18.41 127.72 18.38C127.69 18.35 127.66 18.33 127.63 18.29C127.6 18.26 127.58 18.23 127.55 18.2C127.53 18.16 127.51 18.12 127.49 18.09C127.48 18.05 127.46 18.02 127.44 17.99C127.42 17.96 127.4 17.93 127.37 17.9C127.35 17.87 127.32 17.85 127.29 17.83C127.26 17.8 127.23 17.78 127.2 17.77C127.12 17.75 127.04 17.73 126.97 17.73C126.89 17.73 126.81 17.73 126.73 17.75C126.66 17.77 126.58 17.79 126.51 17.83C126.44 17.86 126.37 17.9 126.31 17.95C126.24 18.01 126.16 18.04 126.07 18.06C125.98 18.07 125.89 18.07 125.8 18.04C125.71 18.02 125.63 17.97 125.57 17.91C125.5 17.85 125.45 17.77 125.41 17.69C125.35 17.51 125.25 17.33 125.14 17.17C125.03 17.01 124.89 16.87 124.74 16.75C124.6 16.62 124.43 16.52 124.25 16.44C124.08 16.35 123.89 16.29 123.7 16.26C123.58 16.24 123.46 16.23 123.34 16.23C123.29 16.23 123.24 16.22 123.19 16.22C123.14 16.21 123.09 16.21 123.04 16.2C122.99 16.2 122.94 16.19 122.89 16.18C122.84 16.17 122.79 16.16 122.75 16.15C122.5 16.08 122.28 15.95 122.1 15.78C121.92 15.6 121.78 15.38 121.71 15.14C121.64 14.89 121.62 14.64 121.68 14.39C121.73 14.14 121.84 13.91 122.01 13.71L122.11 13.59L122.12 13.7C122.17 13.64 122.23 13.55 122.28 13.47C122.51 13.12 122.71 12.85 122.9 12.83C122.97 12.83 123.05 12.82 123.13 12.8C123.2 12.79 123.28 12.76 123.35 12.73C123.42 12.7 123.48 12.66 123.55 12.62C123.61 12.58 123.67 12.53 123.73 12.47C123.74 12.46 123.75 12.45 123.76 12.44C123.77 12.43 123.79 12.43 123.8 12.42C123.82 12.42 123.83 12.41 123.85 12.41C123.86 12.41 123.88 12.41 123.89 12.41C124.43 12.52 125.12 12.6 125.75 12.31C127 11.73 127.98 11.53 128.67 11.69C128.77 11.71 128.88 11.74 128.98 11.78C129.08 11.81 129.18 11.85 129.28 11.9C129.38 11.94 129.47 11.99 129.57 12.05C129.66 12.11 129.75 12.17 129.83 12.24C129.85 12.25 129.86 12.27 129.88 12.28C129.9 12.3 129.91 12.31 129.93 12.33C129.94 12.34 129.96 12.36 129.97 12.38C129.99 12.39 130.01 12.41 130.02 12.43C130.09 12.51 130.18 12.58 130.26 12.65C130.35 12.72 130.44 12.78 130.53 12.84C130.63 12.9 130.73 12.95 130.83 12.99C130.93 13.03 131.04 13.06 131.15 13.09C131.17 13.09 131.2 13.1 131.23 13.11C131.3 13.14 131.37 13.18 131.44 13.22C131.51 13.27 131.58 13.31 131.64 13.36C131.7 13.42 131.76 13.47 131.82 13.53C131.88 13.59 131.93 13.65 131.97 13.72C132.22 14.04 132.43 14.38 132.61 14.74C132.78 15.1 132.92 15.48 133.01 15.87C133.11 16.26 133.16 16.66 133.18 17.06C133.19 17.46 133.16 17.86 133.09 18.26C132.99 18.86 132.8 19.68 132.48 20.22L132.48 20.22C132.05 20.94 130.49 22.15 129.78 22.32C129.6 22.35 129.42 22.38 129.24 22.41C129.06 22.43 128.88 22.45 128.69 22.47C128.51 22.49 128.33 22.5 128.15 22.51C127.97 22.52 127.79 22.53 127.6 22.53C127.57 22.53 127.53 22.53 127.5 22.53Z" />
	<path id="Layer" class="shp7" d="M75.86 46.91C70.68 46.91 66.5 42.71 66.5 37.51C66.5 32.3 70.68 28.1 75.86 28.1C81.04 28.1 85.22 32.3 85.22 37.51C85.22 42.71 81.04 46.91 75.86 46.91Z" />
	<path id="Layer" class="shp3" d="M123.25 42.15L113.87 48.71C113.68 49.25 113.2 49.65 112.63 49.75C112.06 49.85 111.48 49.64 111.11 49.19C110.74 48.74 110.64 48.13 110.84 47.59C111.04 47.04 111.51 46.65 112.08 46.55L118.81 40.3C118.81 40.3 121.46 35.49 123.43 34.12L126.52 36.11L123.25 42.15Z" />
	<path id="Layer" class="shp4" d="M121.97 35.53L121.96 35.52C120.82 34.38 121.25 31.49 121.81 29.27C121.91 28.9 122.07 28.56 122.28 28.26C122.5 27.95 122.78 27.69 123.09 27.49C123.4 27.29 123.75 27.15 124.12 27.08C124.49 27 124.86 27 125.23 27.07L125.23 27.07C125.5 27.12 125.76 27.21 126.01 27.34C126.26 27.46 126.48 27.62 126.69 27.81C126.89 28 127.07 28.21 127.21 28.45C127.35 28.69 127.46 28.94 127.54 29.21L128.28 31.95L126.22 36.91L121.97 35.53Z" />
	<path id="Layer" class="shp2" d="M6.45 92.11C2.42 90.03 -0.5 86.02 0.11 81.73C3.68 84.83 8.62 86.65 13.78 86.78C15.79 86.83 18.04 86.69 19.47 87.87C20.35 88.6 20.72 89.74 20.74 90.85C20.76 91.97 20.45 93.09 20.15 94.19L20.22 94.46C15.42 94.61 10.47 94.18 6.45 92.11Z" />
	<path id="Layer" class="shp1" d="M0.21 81.72C1.7 84.87 4.36 87.54 7.71 89.16C7.9 89.25 8.08 89.34 8.27 89.42C8.46 89.5 8.66 89.57 8.85 89.64C9.05 89.7 9.25 89.76 9.45 89.81C9.64 89.86 9.85 89.9 10.05 89.93C10.26 89.96 10.46 89.98 10.67 89.98C10.88 89.98 11.09 89.98 11.29 89.96C11.5 89.94 11.71 89.9 11.91 89.86C12.11 89.81 12.31 89.76 12.51 89.69C13.26 89.45 14 89.12 14.79 89.04C14.98 89.02 15.18 89.02 15.37 89.04C15.56 89.05 15.75 89.09 15.94 89.15C16.12 89.21 16.3 89.28 16.47 89.37C16.64 89.47 16.8 89.58 16.95 89.7C17.66 90.29 18.07 91.09 18.43 91.88C18.84 92.77 19.25 93.69 20.08 94.31C20.18 94.38 20.04 94.53 19.94 94.45C18.48 93.38 18.33 91.51 17.19 90.22C16.66 89.62 15.91 89.18 14.99 89.21C14.19 89.25 13.42 89.58 12.67 89.83C12.47 89.9 12.28 89.96 12.08 90.01C11.88 90.06 11.68 90.1 11.48 90.12C11.28 90.15 11.08 90.17 10.87 90.17C10.67 90.18 10.47 90.17 10.26 90.15C10.06 90.13 9.85 90.09 9.65 90.05C9.45 90.01 9.25 89.96 9.05 89.91C8.85 89.85 8.66 89.78 8.46 89.71C8.27 89.64 8.08 89.56 7.9 89.47C7.49 89.28 7.09 89.08 6.7 88.86C6.31 88.65 5.93 88.41 5.56 88.16C5.19 87.92 4.83 87.65 4.48 87.38C4.13 87.1 3.8 86.81 3.47 86.5C3.11 86.17 2.77 85.82 2.44 85.45C2.11 85.09 1.81 84.7 1.52 84.31C1.22 83.91 0.95 83.5 0.7 83.08C0.45 82.66 0.22 82.23 0.01 81.78C-0.04 81.68 0.16 81.61 0.21 81.72L0.21 81.72Z" />
	<path id="Layer" class="shp1" d="M6.59 88.69C6.67 88.59 6.52 88.47 6.43 88.57C6.23 88.8 5.99 88.99 5.72 89.15C5.46 89.31 5.17 89.42 4.87 89.49C4.57 89.56 4.26 89.58 3.95 89.55C3.65 89.52 3.35 89.44 3.06 89.32C2.94 89.27 2.84 89.44 2.96 89.49C4.15 90.04 5.7 89.7 6.59 88.69L6.59 88.69Z" />
	<path id="Layer" class="shp1" d="M12.15 89.86C12.12 89.55 12.05 89.25 11.96 88.96C11.87 88.67 11.75 88.39 11.6 88.13C11.44 87.87 11.27 87.62 11.06 87.39C10.86 87.16 10.64 86.96 10.39 86.78C10.29 86.71 10.44 86.56 10.54 86.64C10.79 86.82 11.03 87.04 11.24 87.27C11.45 87.51 11.63 87.77 11.79 88.04C11.95 88.32 12.07 88.61 12.17 88.91C12.26 89.21 12.33 89.52 12.36 89.84C12.37 89.96 12.16 89.98 12.15 89.86L12.15 89.86Z" />
	<path id="Layer" class="shp1" d="M2.27 85.04C2.38 84.97 2.47 84.88 2.54 84.79C2.62 84.69 2.69 84.59 2.74 84.47C2.8 84.36 2.83 84.24 2.86 84.12C2.88 84 2.89 83.88 2.88 83.75C2.86 83.63 3.08 83.62 3.09 83.74C3.1 83.87 3.09 84.01 3.06 84.14C3.04 84.28 3 84.41 2.94 84.53C2.88 84.66 2.81 84.77 2.72 84.88C2.64 84.99 2.54 85.08 2.43 85.16C2.42 85.17 2.4 85.18 2.39 85.18C2.38 85.19 2.37 85.19 2.35 85.19C2.34 85.2 2.33 85.19 2.31 85.19C2.3 85.19 2.29 85.18 2.28 85.17C2.27 85.17 2.26 85.16 2.25 85.14C2.25 85.13 2.24 85.12 2.24 85.11C2.24 85.09 2.25 85.08 2.25 85.07C2.26 85.06 2.27 85.05 2.27 85.04L2.27 85.04Z" />
	<path id="Layer" class="shp2" d="M13.88 73.06C13.89 73.13 13.91 73.21 13.92 73.28C13.95 73.53 13.99 73.78 14.04 74.03C14.09 74.28 14.14 74.53 14.2 74.77C14.26 75.02 14.33 75.26 14.4 75.51C14.47 75.75 14.54 75.99 14.62 76.23C14.65 76.31 14.67 76.38 14.7 76.45C14.9 77.03 15.14 77.6 15.41 78.15C15.67 78.71 15.97 79.25 16.29 79.77C16.61 80.29 16.96 80.8 17.33 81.28C17.7 81.77 18.1 82.23 18.53 82.68C18.7 82.86 18.87 83.04 19.05 83.21C19.23 83.39 19.42 83.56 19.6 83.73C19.79 83.89 19.98 84.06 20.17 84.22C20.37 84.38 20.56 84.53 20.76 84.68C21.88 85.53 23.17 86.36 23.85 87.48C23.87 87.5 23.89 87.53 23.91 87.56C23.92 87.59 23.94 87.62 23.96 87.65C23.97 87.68 23.99 87.71 24 87.74C24.02 87.77 24.03 87.8 24.05 87.83L20.59 94.33C20.57 94.35 20.56 94.36 20.54 94.37L20.42 94.63C20.37 94.61 20.33 94.57 20.29 94.55C20.26 94.53 20.23 94.51 20.21 94.49C20.19 94.48 20.18 94.47 20.16 94.46C20.15 94.46 20.15 94.45 20.14 94.45C20.13 94.44 20.11 94.43 20.1 94.42C19.85 94.25 19.59 94.08 19.34 93.9C19.34 93.9 19.34 93.9 19.34 93.9C17.43 92.56 15.65 91.05 14.19 89.34C14.15 89.28 14.11 89.23 14.06 89.18C13.9 88.98 13.75 88.79 13.59 88.59C13.44 88.39 13.29 88.18 13.15 87.98C13.01 87.77 12.87 87.56 12.74 87.35C12.6 87.14 12.47 86.92 12.35 86.7C12.28 86.58 12.22 86.46 12.16 86.34C12.09 86.22 12.03 86.1 11.97 85.97C11.91 85.85 11.85 85.73 11.8 85.6C11.74 85.48 11.69 85.35 11.63 85.23C11.5 84.9 11.38 84.57 11.28 84.24C11.17 83.9 11.08 83.56 11.01 83.22C10.93 82.87 10.88 82.53 10.83 82.18C10.79 81.83 10.76 81.48 10.75 81.13C10.66 78.3 11.58 75.42 13.72 73.23C13.77 73.17 13.83 73.11 13.88 73.06Z" />
	<path id="Layer" class="shp1" d="M13.97 73.11C12.95 76.56 13.15 80.25 14.58 83.43C14.65 83.6 14.74 83.77 14.83 83.94C14.91 84.11 15.01 84.28 15.11 84.44C15.22 84.6 15.33 84.75 15.45 84.9C15.56 85.05 15.69 85.2 15.82 85.33C15.96 85.47 16.1 85.6 16.26 85.71C16.42 85.83 16.58 85.94 16.75 86.03C16.92 86.13 17.1 86.21 17.28 86.28C17.46 86.35 17.65 86.41 17.84 86.45C18.57 86.65 19.34 86.78 19.99 87.13C20.15 87.22 20.3 87.33 20.43 87.45C20.57 87.57 20.69 87.7 20.79 87.85C20.89 88 20.97 88.16 21.04 88.33C21.1 88.5 21.15 88.68 21.17 88.86C21.31 89.74 21.07 90.63 20.81 91.5C20.52 92.46 20.2 93.46 20.41 94.43C20.44 94.55 20.23 94.59 20.2 94.48C19.84 92.78 20.99 91.12 21 89.43C21.01 88.63 20.74 87.85 20.02 87.39C19.4 86.99 18.6 86.86 17.86 86.66C17.67 86.62 17.49 86.56 17.31 86.5C17.13 86.44 16.95 86.36 16.78 86.27C16.61 86.19 16.44 86.09 16.29 85.98C16.13 85.88 15.97 85.76 15.83 85.63C15.69 85.5 15.56 85.36 15.44 85.22C15.31 85.08 15.19 84.93 15.08 84.77C14.97 84.62 14.87 84.46 14.77 84.29C14.68 84.12 14.59 83.95 14.51 83.78C14.33 83.4 14.16 83.01 14.02 82.61C13.87 82.21 13.74 81.81 13.63 81.4C13.52 80.99 13.42 80.57 13.35 80.16C13.28 79.74 13.22 79.32 13.19 78.89C13.14 78.4 13.12 77.91 13.12 77.42C13.13 76.93 13.15 76.43 13.2 75.94C13.25 75.45 13.32 74.97 13.42 74.48C13.51 74 13.63 73.52 13.77 73.05C13.8 72.93 14 72.99 13.97 73.11L13.97 73.11Z" />
	<path id="Layer" class="shp1" d="M14.05 82.42C12.7 82.8 11.3 82.25 10.78 81.14C10.72 81.04 10.92 80.95 10.97 81.05C11.46 82.09 12.76 82.59 14.02 82.24C14.15 82.2 14.18 82.38 14.05 82.42Z" />
	<path id="Layer" class="shp1" d="M17.45 86.4C17.63 86.15 17.78 85.88 17.9 85.59C18.03 85.31 18.12 85.01 18.19 84.71C18.25 84.4 18.29 84.09 18.29 83.78C18.29 83.47 18.27 83.16 18.21 82.86C18.18 82.74 18.39 82.7 18.42 82.82C18.48 83.13 18.51 83.46 18.5 83.78C18.5 84.1 18.46 84.42 18.39 84.74C18.33 85.06 18.23 85.36 18.1 85.66C17.97 85.96 17.81 86.24 17.62 86.5C17.55 86.61 17.38 86.51 17.45 86.4L17.45 86.4Z" />
	<path id="Layer" class="shp1" d="M13.27 77.02C13.4 77.01 13.53 76.98 13.66 76.94C13.79 76.9 13.91 76.85 14.02 76.79C14.13 76.72 14.24 76.64 14.34 76.55C14.44 76.46 14.52 76.36 14.6 76.26C14.67 76.15 14.84 76.25 14.77 76.36C14.69 76.48 14.59 76.59 14.48 76.68C14.37 76.78 14.26 76.87 14.13 76.94C14 77.01 13.87 77.07 13.73 77.12C13.59 77.16 13.45 77.19 13.3 77.2C13.25 77.21 13.19 77.19 13.18 77.13C13.18 77.12 13.18 77.11 13.19 77.09C13.19 77.08 13.2 77.07 13.21 77.06C13.21 77.05 13.22 77.04 13.24 77.03C13.25 77.03 13.26 77.02 13.27 77.02Z" />
	<path id="Layer" class="shp8" d="M26.06 40.49L34.15 40.5L35.13 40.49L34.36 46.05L26.19 47.02L26.37 43.32L26.06 40.49L26.06 40.49Z" />
	<path id="Layer" class="shp8" d="M21.83 91.8L21.83 84.88L24.46 84.88L23.61 91.8L21.83 91.8L21.83 91.8Z" />
	<path id="Layer" class="shp5" d="M21.24 90.57L24.1 90.4L24.1 91.63L26.81 93.51C26.94 93.61 27.05 93.74 27.1 93.9C27.15 94.05 27.15 94.22 27.11 94.37C27.06 94.53 26.96 94.67 26.83 94.76C26.7 94.86 26.54 94.91 26.38 94.91L22.98 94.91L22.39 93.7L22.17 94.91L20.88 94.91L21.24 90.57Z" />
	<path id="Layer" class="shp8" d="M31.86 91.8L31.86 84.88L34.5 84.88L33.65 91.8L31.86 91.8L31.86 91.8Z" />
	<path id="Layer" class="shp5" d="M31.28 90.57L34.13 90.4L34.13 91.63L36.84 93.51C36.98 93.61 37.08 93.74 37.13 93.9C37.19 94.05 37.19 94.22 37.14 94.37C37.09 94.53 36.99 94.67 36.86 94.76C36.73 94.86 36.57 94.91 36.41 94.91L33.01 94.91L32.43 93.7L32.2 94.91L30.92 94.91L31.28 90.57Z" />
	<path id="Layer" class="shp5" d="M21.06 85.83L21.08 85.83L21.42 74.58C21.31 74.36 21.22 74.14 21.17 73.9C21.11 73.66 21.09 73.42 21.09 73.18C21.09 72.94 21.13 72.7 21.19 72.47C21.25 72.23 21.34 72.01 21.46 71.8L21.51 71.71L21.38 71.11C21.34 70.92 21.31 70.73 21.3 70.54C21.29 70.34 21.29 70.15 21.31 69.96C21.33 69.76 21.36 69.57 21.41 69.39C21.46 69.2 21.52 69.01 21.59 68.84L21.91 58.34C20.77 50.88 26.23 46.02 26.23 46.02L34.4 46.02L36.15 52.08C37.31 63.43 37.1 74.5 35.26 85.22L35.31 85.25C35.49 85.31 35.57 85.56 35.49 85.81C35.4 86.06 35.19 86.21 35.01 86.14L30.69 85.99C30.51 85.93 30.43 85.68 30.52 85.43C30.6 85.18 30.82 85.03 31 85.1L31.29 85.24L30.66 74.38L30.73 72.4L30.59 70.15L29.93 60.02L27.42 72.47L24.87 85.96C24.94 86.02 24.99 86.11 25.01 86.2C25.03 86.29 25.02 86.39 24.99 86.48C24.96 86.57 24.89 86.65 24.82 86.7C24.74 86.75 24.64 86.78 24.55 86.78L21.06 86.78C20.93 86.78 20.81 86.73 20.72 86.64C20.63 86.55 20.58 86.43 20.58 86.31C20.58 86.18 20.63 86.06 20.72 85.97C20.81 85.88 20.93 85.83 21.06 85.83L21.06 85.83Z" />
	<path id="Layer" class="shp8" d="M27.49 26.03C25.07 26.03 23.11 24.06 23.11 21.62C23.11 19.18 25.07 17.22 27.49 17.22C29.92 17.22 31.88 19.18 31.88 21.62C31.88 24.06 29.92 26.03 27.49 26.03Z" />
	<path id="Layer" class="shp5" d="M5.88 36.37C6.57 36.15 7.24 35.86 7.89 35.51C8.53 35.17 9.14 34.76 9.71 34.3C10.28 33.85 10.81 33.34 11.29 32.79C11.76 32.24 12.19 31.64 12.57 31.01C13.55 29.34 14.11 27.46 14.64 25.59C15.09 23.98 15.52 22.36 16.19 20.83C16.3 20.58 16.41 20.34 16.53 20.09C16.58 20 16.63 19.91 16.68 19.81C16.73 19.72 16.78 19.63 16.83 19.54C16.88 19.45 16.93 19.36 16.99 19.27C17.04 19.18 17.09 19.09 17.15 19.01C17.28 18.92 17.41 18.84 17.54 18.76C17.68 18.69 17.82 18.62 17.96 18.57C18.11 18.51 18.25 18.46 18.4 18.42C18.55 18.38 18.7 18.35 18.85 18.33C18.75 18.33 18.64 18.33 18.53 18.34C18.42 18.34 18.31 18.35 18.2 18.35C18.09 18.36 17.99 18.37 17.88 18.38C17.77 18.39 17.66 18.41 17.55 18.42C17.74 18.16 17.94 17.91 18.15 17.67C18.37 17.43 18.6 17.2 18.84 16.99C19.08 16.78 19.34 16.58 19.6 16.4C19.87 16.22 20.14 16.06 20.43 15.91C22.16 15.05 24.37 15.03 25.93 16.18C26.26 15.88 26.64 15.63 27.05 15.45C27.46 15.27 27.89 15.15 28.33 15.1C28.78 15.05 29.23 15.07 29.67 15.16C30.1 15.25 30.52 15.41 30.91 15.63C31.99 16.27 32.76 17.72 32.11 18.8C31.72 19.45 30.97 19.73 30.22 19.92C30.25 19.83 30.3 19.74 30.34 19.65C30.39 19.56 30.44 19.48 30.5 19.39C30.56 19.31 30.62 19.23 30.69 19.16C30.75 19.08 30.82 19.01 30.9 18.95C30.53 19.2 30.42 19.22 30.11 19.5C30.06 19.54 30 19.59 29.95 19.64C29.9 19.69 29.84 19.74 29.79 19.79C29.74 19.84 29.69 19.89 29.64 19.94C29.59 19.99 29.54 20.04 29.49 20.09C28.91 20.22 28.32 20.35 27.74 20.48C27.95 19.88 28.4 19.3 29.07 18.79C28.84 18.91 28.61 19.03 28.39 19.17C28.17 19.31 27.95 19.46 27.74 19.62C27.53 19.78 27.33 19.94 27.13 20.12C26.94 20.29 26.75 20.48 26.57 20.67C26.53 20.71 26.49 20.76 26.46 20.8C26.36 20.83 26.27 20.86 26.18 20.9C26.1 20.94 26.01 20.99 25.93 21.04C25.85 21.09 25.77 21.15 25.69 21.21C25.62 21.27 25.55 21.34 25.48 21.41C25.01 21.95 24.95 22.77 25.16 23.46C25.37 24.15 25.8 24.75 26.22 25.34L26.29 25.34C26.38 26.31 25.58 27.44 25.67 28.41C25.87 30.46 26.07 32.52 25.86 34.56C25.65 36.61 24.99 38.66 23.65 40.21C22.41 41.65 20.67 42.57 18.88 43.19C18.59 43.3 18.29 43.39 17.98 43.48C17.68 43.56 17.37 43.64 17.07 43.71C16.76 43.77 16.45 43.83 16.14 43.88C15.82 43.92 15.51 43.96 15.2 43.99C15.18 43.51 15.2 43.03 15.26 42.55C15.31 42.08 15.4 41.61 15.53 41.15C15.65 40.68 15.81 40.23 16 39.79C16.19 39.35 16.42 38.93 16.67 38.53C16.32 38.92 15.99 39.33 15.68 39.76C15.37 40.19 15.09 40.64 14.83 41.1C14.57 41.56 14.34 42.03 14.13 42.52C13.93 43.01 13.75 43.5 13.6 44.01C13.32 44 13.04 43.97 12.76 43.94C12.48 43.9 12.2 43.85 11.93 43.79C11.65 43.72 11.38 43.65 11.11 43.56C10.84 43.48 10.58 43.38 10.32 43.27C10.23 43.23 10.15 43.2 10.06 43.15C9.98 43.11 9.89 43.07 9.81 43.03C9.73 42.98 9.64 42.94 9.56 42.89C9.48 42.84 9.4 42.8 9.32 42.75C9.34 42.33 9.38 41.92 9.46 41.51C9.53 41.1 9.63 40.7 9.75 40.3C9.87 39.9 10.02 39.52 10.2 39.14C10.37 38.76 10.57 38.4 10.78 38.05C10.52 38.34 10.28 38.64 10.04 38.95C9.81 39.26 9.58 39.58 9.37 39.91C9.16 40.23 8.97 40.57 8.78 40.92C8.6 41.26 8.43 41.61 8.28 41.97C6.67 40.55 5.64 38.49 5.88 36.37Z" />
	<path id="Layer" class="shp7" d="M34.53 31.12C37.5 32.52 35.66 36.26 35.66 36.26L35.67 41L25.49 42.28L23.97 35.99L22.99 30.81L25.23 29.09L26.16 27.22L29.98 26.91L31.06 28.65L31.91 28.97L34.53 31.12Z" />
	<path id="Layer" class="shp8" d="M47.59 45.4C47.4 45.48 47.18 45.51 46.97 45.5C46.76 45.49 46.55 45.43 46.36 45.33C46.18 45.23 46.01 45.09 45.89 44.92C45.76 44.75 45.67 44.55 45.63 44.34L34.28 37.44L36.35 35.03L46.86 42.57C47.21 42.52 47.57 42.61 47.87 42.81C48.17 43 48.38 43.31 48.47 43.66C48.57 44 48.53 44.37 48.36 44.7C48.2 45.02 47.93 45.27 47.59 45.4L47.59 45.4Z" />
	<path id="Layer" class="shp7" d="M30.88 33.76L33.64 31.72L38.26 36.36L40.15 37.78C40.43 37.6 40.97 37.42 41.31 38.21L39.75 41.65C39.63 41.61 39.52 41.55 39.42 41.47C39.32 41.39 39.23 41.3 39.17 41.19C39.1 41.09 39.05 40.97 39.02 40.85C38.99 40.72 38.98 40.6 38.99 40.47C37.26 39.91 32.4 36.34 31.31 35.62C29.95 34.72 30.5 34.17 30.5 34.17L30.88 33.76Z" />
	<path id="Layer" class="shp9" d="M25.22 21.69C25.08 21.25 24.98 20.78 24.93 20.32C24.89 19.85 24.9 19.38 24.96 18.91C25.03 18.44 25.14 17.99 25.31 17.55C25.48 17.11 25.7 16.69 25.96 16.3" />
	<path id="Layer" class="shp6" d="M3.72 94.79C3.72 94.77 3.72 94.75 3.73 94.72C3.74 94.7 3.75 94.68 3.77 94.67C3.79 94.65 3.81 94.64 3.83 94.63C3.85 94.62 3.87 94.61 3.9 94.61L46.37 94.61C46.41 94.61 46.46 94.63 46.49 94.67C46.53 94.7 46.55 94.75 46.55 94.79C46.55 94.84 46.53 94.89 46.49 94.92C46.46 94.96 46.41 94.97 46.37 94.97L3.9 94.97C3.87 94.98 3.85 94.97 3.83 94.96C3.81 94.95 3.79 94.94 3.77 94.92C3.75 94.91 3.74 94.89 3.73 94.86C3.72 94.84 3.72 94.82 3.72 94.79L3.72 94.79Z" />
	<path id="a4a87c0b-578c-404f-b0e7-3c25016717c2-63" class="shp0" d="M54.32 41.48C54.38 41.46 54.43 41.45 54.49 41.46C54.54 41.46 54.6 41.47 54.65 41.5C54.7 41.52 54.74 41.55 54.78 41.6C54.82 41.64 54.85 41.69 54.86 41.74L60.78 58.87C60.8 58.93 60.81 58.98 60.8 59.04C60.8 59.09 60.79 59.15 60.76 59.2C60.74 59.25 60.7 59.29 60.66 59.33C60.62 59.37 60.57 59.4 60.52 59.42L26.09 71.55C26.04 71.57 25.99 71.58 25.93 71.58C25.88 71.57 25.82 71.56 25.77 71.54C25.72 71.51 25.68 71.48 25.64 71.44C25.6 71.39 25.57 71.35 25.55 71.29L19.64 54.16C19.62 54.11 19.61 54.05 19.61 53.99C19.62 53.94 19.63 53.88 19.66 53.83C19.68 53.78 19.71 53.74 19.76 53.7C19.8 53.66 19.84 53.63 19.9 53.62L54.32 41.48Z" />
	<path id="Layer" class="shp1" d="M28.61 69.08C28.27 69.08 27.94 69.03 27.62 68.93C27.3 68.82 26.99 68.67 26.72 68.48C26.44 68.28 26.2 68.04 26 67.77C25.79 67.51 25.63 67.21 25.52 66.89L22.27 57.65C22.13 57.24 22.07 56.81 22.09 56.38C22.11 55.95 22.22 55.52 22.4 55.13C22.59 54.74 22.85 54.4 23.17 54.11C23.49 53.82 23.86 53.59 24.27 53.45L41.67 47.27C43.28 46.7 44.99 46.45 46.7 46.55C48.4 46.64 50.08 47.07 51.62 47.81C53.16 48.55 54.55 49.59 55.69 50.86C56.83 52.14 57.72 53.63 58.29 55.25C58.43 55.66 58.49 56.09 58.47 56.52C58.45 56.95 58.34 57.37 58.16 57.76C57.97 58.15 57.71 58.5 57.39 58.79C57.07 59.08 56.7 59.3 56.29 59.45L56.27 59.38L56.29 59.45L29.7 68.89C29.61 68.92 29.52 68.95 29.43 68.97C29.34 69 29.25 69.02 29.16 69.03C29.07 69.05 28.98 69.06 28.89 69.07C28.8 69.08 28.7 69.08 28.61 69.08L28.61 69.08Z" />
	<path id="e6660b72-17a8-4076-a000-8bf222be7673-64" class="shp0" d="M51.69 50.87L36.11 56.36C35.89 56.44 35.61 56.23 35.5 55.9C35.38 55.57 35.47 55.24 35.69 55.16L51.27 49.67C51.48 49.59 51.76 49.8 51.87 50.13C51.99 50.46 51.91 50.79 51.69 50.87Z" />
	<path id="f689c0b7-f689-4c10-b0b9-25ad5f15d9dd-65" class="shp0" d="M52.89 54.32L37.31 59.82C37.09 59.89 36.82 59.69 36.7 59.35C36.59 59.02 36.67 58.69 36.89 58.61L52.47 53.12C52.69 53.04 52.96 53.25 53.08 53.58C53.19 53.91 53.11 54.25 52.89 54.32Z" />
	<path id="f731b694-f804-4551-a9ab-28894637a524-66" class="shp0" d="" />
	<path id="Layer" class="shp10" d="M34 58.24C34.04 58.36 34.08 58.48 34.11 58.6C34.14 58.72 34.16 58.85 34.18 58.97C34.2 59.09 34.22 59.22 34.23 59.34C34.24 59.47 34.24 59.59 34.24 59.72C34.24 59.78 34.23 59.83 34.23 59.89C34.23 59.95 34.22 60 34.22 60.06C34.21 60.12 34.21 60.18 34.2 60.23C34.19 60.29 34.18 60.35 34.17 60.4C34.04 61.13 33.71 61.82 33.23 62.38C32.76 62.95 32.14 63.37 31.44 63.62C30.74 63.87 29.99 63.93 29.27 63.79C28.54 63.65 27.86 63.33 27.3 62.84C27.25 62.79 27.19 62.74 27.14 62.69C26.21 61.8 25.74 60.53 25.86 59.25C25.98 57.96 26.69 56.8 27.76 56.1C28.84 55.4 30.18 55.24 31.4 55.66C32.61 56.07 33.57 57.03 34 58.24L34 58.24Z" />
	<path id="Layer" class="shp9" d="M30.22 60.29C29.77 60.29 29.41 59.93 29.41 59.48C29.41 59.04 29.77 58.68 30.22 58.68C30.66 58.68 31.02 59.04 31.02 59.48C31.02 59.93 30.66 60.29 30.22 60.29Z" />
	<path id="Layer" class="shp4" d="M27.14 62.69C27.34 62.21 27.59 61.48 28.15 61.75C28.43 61.87 28.93 62.24 29.13 61.81L30.72 58.47C30.75 58.41 30.79 58.35 30.84 58.31C30.89 58.26 30.95 58.23 31.02 58.2C31.08 58.18 31.15 58.17 31.22 58.18C31.29 58.18 31.36 58.2 31.42 58.24L34.24 59.72C34.24 59.78 34.23 59.83 34.23 59.89C34.23 59.95 34.22 60 34.22 60.06C34.21 60.12 34.21 60.18 34.2 60.23C34.19 60.29 34.18 60.35 34.17 60.4L27.3 62.84L27.14 62.69Z" />
	<path id="Layer" class="shp8" d="M27.96 52.84C27.76 52.76 27.58 52.64 27.43 52.49C27.28 52.33 27.17 52.15 27.1 51.94C27.04 51.74 27.01 51.53 27.04 51.31C27.06 51.1 27.13 50.9 27.24 50.71L23.65 37.88L26.8 37.55L29.34 50.27C29.63 50.47 29.84 50.78 29.92 51.13C30 51.48 29.95 51.85 29.78 52.17C29.61 52.49 29.33 52.73 29 52.85C28.66 52.98 28.29 52.97 27.96 52.84L27.96 52.84Z" />
	<path id="Layer" class="shp7" d="M23.67 30.81L26.99 31.51L27.59 39.34L27.99 41.67C28.32 41.73 28.55 42.47 28.26 43.27L24.78 44.72C24.72 44.6 24.68 44.48 24.66 44.36C24.64 44.23 24.64 44.1 24.66 43.98C24.69 43.85 24.73 43.73 24.79 43.62C24.85 43.51 24.93 43.41 25.02 43.33C24.15 41.73 23.03 33.73 22.73 32.46C22.35 30.87 23.12 30.84 23.12 30.84L23.67 30.81Z" />
	<path id="Layer" class="shp7" d="M54.48 64.6L49.66 64.8C49.61 64.8 49.56 64.8 49.51 64.79C49.46 64.78 49.41 64.76 49.36 64.74C49.32 64.72 49.27 64.7 49.23 64.67C49.19 64.64 49.15 64.6 49.12 64.56C49.08 64.52 49.06 64.48 49.03 64.44C49.01 64.39 48.99 64.35 48.98 64.3C48.96 64.25 48.96 64.2 48.95 64.15C48.95 64.1 48.95 64.05 48.96 64C49.06 63.49 49.12 62.98 49.15 62.47C49.18 61.96 49.19 61.45 49.16 60.94C49.13 60.43 49.08 59.92 48.99 59.41C48.91 58.91 48.79 58.41 48.65 57.92C48.63 57.84 48.62 57.76 48.62 57.68C48.63 57.61 48.64 57.53 48.68 57.46C48.71 57.39 48.75 57.32 48.8 57.26C48.85 57.2 48.92 57.16 48.98 57.12C50.96 56.09 52.8 56.04 54.48 56.96C54.52 56.99 54.56 57.02 54.6 57.05C54.64 57.08 54.67 57.12 54.7 57.16C54.73 57.2 54.75 57.24 54.77 57.29C54.79 57.33 54.81 57.38 54.82 57.43C54.93 57.97 55.02 58.51 55.08 59.05C55.15 59.6 55.2 60.15 55.22 60.69C55.25 61.24 55.26 61.79 55.24 62.34C55.22 62.89 55.19 63.44 55.13 63.98C55.12 64.06 55.1 64.14 55.06 64.22C55.03 64.29 54.98 64.36 54.92 64.41C54.86 64.47 54.79 64.51 54.72 64.55C54.64 64.58 54.56 64.6 54.48 64.6Z" />
	<path id="Layer" class="shp1" d="M54.27 61.43L50.59 61.59C50.5 61.59 50.41 61.56 50.34 61.49C50.28 61.43 50.24 61.34 50.23 61.25C50.23 61.16 50.26 61.07 50.32 61C50.39 60.94 50.47 60.89 50.56 60.89L54.25 60.74C54.34 60.73 54.43 60.77 54.49 60.83C54.56 60.89 54.6 60.98 54.61 61.07C54.61 61.16 54.58 61.25 54.51 61.32C54.45 61.39 54.37 61.43 54.27 61.43L54.27 61.43Z" />
	<path id="Layer" class="shp1" d="M54.22 60.22L50.54 60.37C50.45 60.37 50.36 60.34 50.29 60.28C50.23 60.21 50.19 60.13 50.18 60.04C50.18 59.94 50.21 59.85 50.27 59.79C50.34 59.72 50.42 59.68 50.51 59.67L54.2 59.52C54.29 59.52 54.38 59.55 54.44 59.61C54.51 59.67 54.55 59.76 54.56 59.85C54.56 59.95 54.53 60.04 54.46 60.1C54.4 60.17 54.32 60.21 54.22 60.22L54.22 60.22Z" />
	<path id="Layer" class="shp7" d="M142.53 26.75L137.75 26.13C137.7 26.12 137.65 26.11 137.61 26.09C137.56 26.07 137.51 26.05 137.47 26.02C137.43 25.99 137.39 25.96 137.35 25.92C137.31 25.88 137.28 25.84 137.26 25.8C137.23 25.75 137.21 25.71 137.19 25.66C137.18 25.61 137.17 25.56 137.16 25.51C137.16 25.46 137.16 25.41 137.17 25.36C137.17 25.31 137.18 25.26 137.2 25.22C137.38 24.73 137.53 24.24 137.65 23.75C137.77 23.25 137.86 22.74 137.92 22.23C137.98 21.73 138.01 21.21 138.01 20.7C138.01 20.19 137.98 19.68 137.93 19.17C137.92 19.09 137.92 19.01 137.94 18.94C137.96 18.86 137.99 18.79 138.03 18.72C138.07 18.66 138.12 18.6 138.19 18.55C138.25 18.5 138.32 18.47 138.39 18.44C140.51 17.77 142.34 18.03 143.83 19.23C143.87 19.26 143.9 19.3 143.93 19.34C143.97 19.38 143.99 19.42 144.02 19.46C144.04 19.51 144.06 19.55 144.07 19.6C144.08 19.65 144.09 19.7 144.09 19.75C144.1 20.3 144.1 20.85 144.07 21.4C144.05 21.94 144 22.49 143.93 23.04C143.86 23.58 143.78 24.12 143.67 24.66C143.56 25.2 143.43 25.73 143.28 26.26C143.26 26.34 143.22 26.41 143.17 26.48C143.13 26.54 143.07 26.6 143 26.65C142.93 26.69 142.85 26.73 142.78 26.74C142.7 26.76 142.61 26.77 142.53 26.75L142.53 26.75Z" />
	<path id="Layer" class="shp1" d="M142.87 23.6L139.22 23.12C139.13 23.11 139.04 23.06 138.99 22.99C138.93 22.91 138.91 22.82 138.92 22.73C138.93 22.64 138.98 22.55 139.05 22.5C139.12 22.44 139.22 22.42 139.31 22.43L142.96 22.91C143.05 22.92 143.13 22.97 143.19 23.04C143.25 23.12 143.27 23.21 143.26 23.3C143.25 23.39 143.2 23.47 143.13 23.53C143.05 23.59 142.96 23.61 142.87 23.6L142.87 23.6Z" />
	<path id="Layer" class="shp1" d="M143.03 22.39L139.37 21.91C139.28 21.9 139.2 21.85 139.15 21.78C139.09 21.71 139.06 21.61 139.08 21.52C139.09 21.43 139.14 21.35 139.21 21.29C139.28 21.23 139.37 21.21 139.46 21.22L143.12 21.7C143.21 21.72 143.29 21.76 143.35 21.84C143.4 21.91 143.43 22 143.42 22.09C143.4 22.18 143.36 22.27 143.28 22.32C143.21 22.38 143.12 22.4 143.03 22.39L143.03 22.39Z" />
	<path id="Layer" class="shp1" d="M79.91 36.48C80.18 36.75 80.33 37.12 80.33 37.51C80.33 37.89 80.18 38.26 79.91 38.53C79.64 38.8 79.27 38.95 78.89 38.95L77.3 38.95L77.3 40.55C77.3 40.93 77.15 41.3 76.88 41.57C76.61 41.84 76.24 42 75.86 42C75.48 42 75.11 41.84 74.84 41.57C74.57 41.3 74.42 40.93 74.42 40.55L74.42 38.95L72.83 38.95C72.45 38.95 72.08 38.8 71.81 38.53C71.54 38.26 71.39 37.89 71.39 37.51C71.39 37.12 71.54 36.75 71.81 36.48C72.08 36.21 72.45 36.06 72.83 36.06L74.42 36.06L74.42 34.46C74.42 34.08 74.57 33.71 74.84 33.44C75.11 33.17 75.48 33.01 75.86 33.01C76.24 33.01 76.61 33.17 76.88 33.44C77.15 33.71 77.3 34.08 77.3 34.46L77.3 36.06L78.89 36.06C79.27 36.06 79.64 36.21 79.91 36.48Z" />
	<path id="Layer" class="shp4" d="M130.41 6.48C129.57 6.48 128.89 5.79 128.89 4.95C128.89 4.11 129.57 3.43 130.41 3.43C131.25 3.43 131.93 4.11 131.93 4.95C131.93 5.79 131.25 6.48 130.41 6.48Z" />
	<path id="Layer" class="shp4" d="M37.23 49.56C36.39 49.56 35.71 48.88 35.71 48.04C35.71 47.19 36.39 46.51 37.23 46.51C38.07 46.51 38.75 47.19 38.75 48.04C38.75 48.88 38.07 49.56 37.23 49.56Z" />
</svg>